<svg xmlns="http://www.w3.org/2000/svg" viewBox="0 0 194.77 144.6">
  <title>Asset 1</title>
  <g id="Layer_2" data-name="Layer 2">
    <g id="Layer_1-2" data-name="Layer 1">
      <g id="OBJECTS">
        <g>
          <path d="M155.27,124.07a50,50,0,0,0,1.81,15.29,31.66,31.66,0,0,0,7.17-1.23l2.47,4a4.38,4.38,0,0,0,6,1.45l6.54-4a4.39,4.39,0,0,0,1.46-6l-2.47-4a31.43,31.43,0,0,0,4.33-5.74l4.56,1.27a4.37,4.37,0,0,0,5.4-3l2.06-7.38a4.37,4.37,0,0,0-3-5.4L187,108a31.68,31.68,0,0,0-1.3-9.33l4-2.46a4.38,4.38,0,0,0,1.45-6l-4-6.55a4.38,4.38,0,0,0-6-1.45l-4,2.47c-.43-.44-.94-.87-1.43-1.28-1.21,1.07-2.41,2.18-3.59,3.36a61.4,61.4,0,0,0-6.76,8,16.4,16.4,0,0,1-1.6,26.94A16.22,16.22,0,0,1,155.27,124.07Z" fill="#489aff"/>
          <g>
            <g>
              <rect x="4.49" y="30.77" width="154.86" height="110.03" rx="6.93" fill="#e3eaff"/>
              <rect x="6.52" y="32.22" width="150.78" height="107.13" rx="5.49" fill="#6db8ff"/>
              <rect x="13.04" y="37.25" width="137.74" height="92.64" rx="3.38" fill="#2f6dff"/>
              <path d="M163.11,135.09a5.77,5.77,0,0,1-5.09,8.56H5.81a5.75,5.75,0,0,1-5.08-8.56Z" fill="#e3eaff"/>
            </g>
            <path d="M163.11,140.59a5.77,5.77,0,0,1-5.09,3.06H5.81a5.78,5.78,0,0,1-5.08-3.06Z" fill="#c8d6f2"/>
          </g>
          <path d="M152.43,30.77a6.92,6.92,0,0,1,6.91,6.93v64.89H51.85a2.77,2.77,0,0,1-2.77-2.77v-69H152.43Z" fill="#424261" opacity="0.2" style="isolation: isolate"/>
          <rect x="52.88" y="22.75" width="120.97" height="76.73" rx="2.76" fill="#e3eaff" opacity="0.21" style="isolation: isolate"/>
          <rect x="57.72" y="17.56" width="120.97" height="76.73" rx="2.76" fill="#f9fbfc"/>
          <rect x="21.39" y="53.51" width="15.73" height="16.42" rx="1.73" fill="#424261" opacity="0.2" style="isolation: isolate"/>
          <rect x="20.48" y="77.36" width="15.73" height="16.42" rx="1.73" fill="#6db8ff"/>
          <rect x="20.48" y="100.68" width="15.73" height="16.42" rx="1.73" fill="#6db8ff"/>
          <g>
            <path d="M28.06,114.2c-4.26-3.11-3.74-7.11-3.74-7.11a3.74,3.74,0,0,1,7.48,0S32.31,111.05,28.06,114.2Z" fill="#9570ee"/>
            <path d="M30.74,107.31a3.23,3.23,0,0,0,0-.44,2.71,2.71,0,1,0,0,.44Z" fill="#f9fbfc"/>
          </g>
          <g>
            <g>
              <g>
                <path d="M33.14,85.33A5.16,5.16,0,0,0,28,80.18h0a5.17,5.17,0,1,0,5.17,5.17Z" fill="#9570ee"/>
                <path d="M28,81.18h0a4.17,4.17,0,1,0,4.17,4.17A4.17,4.17,0,0,0,28,81.18Z" fill="#f9fbfc"/>
                <path d="M24,84.18a.17.17,0,0,1-.16.12h-.06a.16.16,0,0,1-.1-.2,4.51,4.51,0,0,1,8.64,0,.13.13,0,0,1,0,.06.16.16,0,0,1-.17.15h0a.17.17,0,0,1-.16-.12,4.17,4.17,0,0,0-8,0Z" fill="#bb87ee"/>
                <path d="M32.66,85.48a.51.51,0,0,1,.43.57,5.17,5.17,0,0,1-10.24,0V86a.49.49,0,0,1,.49-.51h0a.51.51,0,0,1,.5.43,4.17,4.17,0,0,0,8.26,0,.51.51,0,0,1,.5-.43Z" fill="#7f57ee"/>
                <path d="M28,81.18h0a4.17,4.17,0,1,0,4.17,4.17A4.17,4.17,0,0,0,28,81.18Z" fill="#f9fbfc"/>
                <path d="M32.1,86.71a.17.17,0,0,1,.09.21,4.5,4.5,0,0,1-8.44,0,.13.13,0,0,1,0-.06.16.16,0,0,1,.16-.16h0a.15.15,0,0,1,.16.11,4.18,4.18,0,0,0,7.82,0A.15.15,0,0,1,32,86.7Z" fill="#9570ee"/>
              </g>
              <path d="M28.16,85.52V82.58a.2.2,0,0,0-.2-.2h0a.2.2,0,0,0-.2.2v2.94a.2.2,0,0,0,.2.2h0A.2.2,0,0,0,28.16,85.52Z" fill="#9570ee"/>
              <path d="M27.8,85.69l1.82,1.54a.19.19,0,0,0,.28,0h0a.21.21,0,0,0,0-.29l-1.81-1.53a.21.21,0,0,0-.29,0h0A.19.19,0,0,0,27.8,85.69Z" fill="#9570ee"/>
            </g>
            <g>
              <rect x="27.86" y="81.47" width="0.15" height="0.4" fill="#ced6ff"/>
              <rect x="27.86" y="88.77" width="0.15" height="0.4" fill="#ced6ff"/>
            </g>
            <g>
              <rect x="24.07" y="85.24" width="0.4" height="0.15" fill="#ced6ff"/>
              <rect x="31.38" y="85.25" width="0.4" height="0.15" fill="#ced6ff"/>
            </g>
            <g>
              <rect x="25.26" y="82.53" width="0.15" height="0.4" transform="translate(-51.06 42.12) rotate(-44.98)" fill="#ced6ff"/>
              <rect x="30.44" y="87.71" width="0.15" height="0.4" transform="translate(-53.22 47.32) rotate(-45)" fill="#ced6ff"/>
            </g>
            <g>
              <rect x="25.14" y="87.84" width="0.4" height="0.15" transform="translate(-54.74 43.67) rotate(-45)" fill="#ced6ff"/>
              <rect x="30.31" y="82.67" width="0.4" height="0.15" transform="translate(-49.59 45.85) rotate(-45.03)" fill="#ced6ff"/>
            </g>
          </g>
          <g>
            <rect x="20.48" y="52.99" width="15.73" height="16.42" rx="1.73" fill="#6db8ff"/>
            <g>
              <polyline points="19.6 67.47 18.88 67.01 19.66 65.33 20.31 61.76 20.96 61.63 20.57 65.33 20.96 64.55 21.61 64.68 21.02 66.82 19.73 67.72" fill="#f7d3a9"/>
              <polygon points="28.78 71.92 29.47 70.71 32.84 69.41 32.84 68.63 29.21 69.5 29.9 68.72 29.47 68.11 27.57 70.02 27.39 71.57 28.78 71.92" fill="#f7d3a9"/>
              <g>
                <g>
                  <polygon points="11.95 110.02 13.86 142.31 12.52 142.69 16.15 144.03 10.8 144.6 3.74 110.02 11.95 110.02" fill="#544db8"/>
                  <path d="M12.24,107.56c-.43-.15-6.59,5.44-6.59,5.44A20.43,20.43,0,0,1,16.1,123.3c3.3,7.59-2,14.9-2,14.9l4.3,4.58-1.48-3.91.95.19S21.12,136,22.65,128C24,117.85,15,109.45,15,109.45A30.73,30.73,0,0,0,12.24,107.56Z" fill="#544db8"/>
                  <g>
                    <path d="M20.69,67.71,8,90.48a10.13,10.13,0,0,1,4.87,3.58c.13.43,5,17.19,5,17.19l-15-.86S1.6,96.62,1.6,92.91s.72-5,.72-5C4,84.33,18.8,66.42,18.8,66.42Z" fill="#ff8b40"/>
                    <g>
                      <path d="M7.47,87.52,6.32,90.27c1.09,1.43,4.16,1.49,4.16,1.49-.37-1.14-1-3-1-3Z" fill="#f7d3a9"/>
                      <path d="M7.13,80.11c-2.21.36-2,4.68-.65,6.61s4.41,4,5.32,2.77,0-6.49,0-6.49A4.08,4.08,0,0,0,7.13,80.11Z" fill="#f7d3a9"/>
                    </g>
                    <path d="M12.68,99.2c2.7,0,14.32-12.43,14.7-13.74s1.71-14,1.71-14l-2.29-.57s-2.63,11.3-3.59,12.85-12.79,9-12.79,9C9.09,95.79,10,99.2,12.68,99.2Z" fill="#ff8b40"/>
                  </g>
                </g>
                <path d="M4.81,85.22a6.09,6.09,0,0,0,3,3.46c.52.26,1-.61,1.38-1.3s.86-1.37,0-1.29-1.29-1.17-.86-1.82,1.55,1.13,1.3.35a6.31,6.31,0,0,0-1.3-1.82s.52.19,2.42-.52,2.5-3.71,2.5-3.71-.69.6-3.45.09A4.47,4.47,0,0,0,5.45,80.3C3.89,81,4.07,83.06,4.81,85.22Z" fill="#544db8"/>
              </g>
            </g>
          </g>
          <rect x="65.16" y="25.61" width="36.29" height="61.17" rx="1.3" fill="#e3eaff"/>
          <rect x="71.37" y="30.53" width="23.5" height="5.18" rx="1.04" fill="#6db8ff"/>
          <path d="M81.24,62.53h0a2,2,0,0,0-2-2H74.57a2,2,0,0,0-2,2h0a2,2,0,0,0,2,2h4.67A2,2,0,0,0,81.24,62.53Z" fill="#6db8ff"/>
          <path d="M94.72,62.53h0a2,2,0,0,0-2-2H88.05a2,2,0,0,0-2,2h0a2,2,0,0,0,2,2h4.67A2,2,0,0,0,94.72,62.53Z" fill="#9570ee"/>
          <rect x="70.85" y="40.9" width="25.23" height="3.97" fill="#f9fbfc"/>
          <rect x="70.85" y="47.64" width="25.23" height="3.97" fill="#f9fbfc"/>
          <rect x="76.3" y="54.11" width="14.52" height="0.91" fill="#cdd4ff"/>
          <path d="M176.24,75.46a5,5,0,0,0,5-5.06h0v-.1a5,5,0,0,0-5.05-5H130.81a5,5,0,0,0-5,5.05h0a5.05,5.05,0,0,0,5,5.06h45.38Z" fill="#9570ee"/>
          <g>
            <path d="M137,32.6a4.14,4.14,0,0,0,4.13-4.15h0A4.14,4.14,0,0,0,137,24.31H108.69a4.14,4.14,0,0,0-4.14,4.14h0a4.15,4.15,0,0,0,4.15,4.15H137Z" fill="#e3eaff"/>
            <path d="M114.15,27.16h0a1.3,1.3,0,1,0,1.31,1.29A1.3,1.3,0,0,0,114.13,27.16Z" fill="#ffc240"/>
            <path d="M123,27.16h0a1.3,1.3,0,1,0,1.31,1.29A1.3,1.3,0,0,0,123,27.16Z" fill="#90c240"/>
            <path d="M131.25,27.16h0a1.3,1.3,0,1,0,1.31,1.29A1.3,1.3,0,0,0,131.24,27.16Z" fill="#eb4f24"/>
          </g>
          <g>
            <circle cx="28.17" cy="62.21" r="3.16" fill="#fff"/>
            <g>
              <path d="M31.43,58.43h-.56l-.8-1.13a.32.32,0,0,0-.27-.14H26.62a.35.35,0,0,0-.28.14l-.8,1.13H25A1.57,1.57,0,0,0,23.42,60v4.58h0A1.57,1.57,0,0,0,25,66.15h6.45A1.59,1.59,0,0,0,33,64.58V60A1.58,1.58,0,0,0,31.43,58.43Zm-.9,3.79v0a2.32,2.32,0,1,1-2.32-2.32,2.32,2.32,0,0,1,2.32,2.32Z" fill="#9570ee"/>
              <circle cx="28.21" cy="62.22" r="1.53" fill="#6db8ff"/>
            </g>
          </g>
          <g>
            <rect x="115.3" y="41.09" width="27.81" height="18.27" rx="2.04" fill="#e3eaff"/>
            <path d="M129.58,50l10.72-6a.75.75,0,0,0,.29-1,.74.74,0,0,0-1-.28L129.2,48.53l-10.4-5.81h0a.71.71,0,0,0-1,.29h0a.74.74,0,0,0,.31,1l10.7,6a.78.78,0,0,0,.37.09h.06A.83.83,0,0,0,129.58,50Z" fill="#fd4940"/>
          </g>
          <rect x="149.4" y="12.91" width="34.48" height="44.58" rx="1.81" fill="#544db8"/>
          <g>
            <path d="M157.32,18.43h0c0-.24-.1-.44-.22-.44h-2.3c-.12,0-.22.2-.22.44h0c0,.25.1.45.22.45h2.3C157.22,18.88,157.32,18.68,157.32,18.43Z" fill="#0cf"/>
            <path d="M171.54,18.43h0c0-.24-.1-.44-.22-.44H158.18c-.12,0-.22.2-.22.44h0c0,.25.1.45.22.45h13.14C171.44,18.88,171.54,18.68,171.54,18.43Z" fill="#0cf"/>
            <path d="M162.59,20.27h0c0-.25-.09-.44-.22-.44h-4.19c-.12,0-.22.19-.22.44h0c0,.25.1.44.22.44h4.19C162.5,20.71,162.59,20.52,162.59,20.27Z" fill="#ff56a9"/>
            <path d="M169.49,20.27h0c0-.25-.1-.44-.22-.44h-6c-.13,0-.22.19-.22.44h0c0,.25.09.44.22.44h6C169.39,20.71,169.49,20.52,169.49,20.27Z" fill="#e3eaff"/>
            <path d="M171.54,29.21h0c0-.25-.1-.45-.22-.45H158.18c-.12,0-.22.2-.22.45h0c0,.24.1.44.22.44h13.14C171.44,29.65,171.54,29.45,171.54,29.21Z" fill="#e3eaff"/>
            <path d="M157.32,31h0c0-.24-.1-.44-.22-.44h-2.3c-.12,0-.22.2-.22.44h0c0,.25.1.45.22.45h2.3C157.22,31.49,157.32,31.29,157.32,31Z" fill="#0cf"/>
            <path d="M162.59,31h0c0-.24-.09-.44-.22-.44h-4.19c-.12,0-.22.2-.22.44h0c0,.25.1.45.22.45h4.19C162.5,31.49,162.59,31.29,162.59,31Z" fill="#e3eaff"/>
            <path d="M169.49,31h0c0-.24-.1-.44-.22-.44h-6c-.13,0-.22.2-.22.44h0c0,.25.09.45.22.45h6C169.39,31.49,169.49,31.29,169.49,31Z" fill="#ff56a9"/>
            <path d="M174.8,22.11h0c0-.25-.1-.45-.22-.45h-16.4c-.12,0-.22.2-.22.45h0c0,.24.1.44.22.44h16.4C174.7,22.55,174.8,22.35,174.8,22.11Z" fill="#ff56a9"/>
            <rect x="167.09" y="23.49" width="4.29" height="0.89" rx="0.23" fill="#0cf"/>
            <path d="M163.85,23.94h0c0-.24-.1-.44-.22-.44h-5.45c-.12,0-.22.2-.22.44h0c0,.25.1.45.22.45h5.45C163.75,24.39,163.8,24.19,163.85,23.94Z" fill="#e3eaff"/>
            <path d="M166.75,23.94h0c0-.24-.1-.44-.22-.44h-2.16c-.12,0-.22.2-.22.44h0c0,.25.1.45.22.45h2.16C166.65,24.39,166.75,24.19,166.75,23.94Z" fill="#0cf"/>
            <path d="M157.32,25.72h0c0-.25-.1-.45-.22-.45h-2.3c-.12,0-.22.2-.22.45h0c0,.24.1.44.22.44h2.3C157.22,26.16,157.32,26,157.32,25.72Z" fill="#e3eaff"/>
            <path d="M174.8,25.72h0c0-.25-.1-.45-.22-.45h-16.4c-.12,0-.22.2-.22.45h0c0,.24.1.44.22.44h16.4C174.7,26.16,174.8,26,174.8,25.72Z" fill="#e3eaff"/>
            <path d="M157.32,32.74h0c0-.24-.1-.44-.22-.44h-2.3c-.12,0-.22.2-.22.44h0c0,.25.1.45.22.45h2.3C157.22,33.19,157.32,33,157.32,32.74Z" fill="#e3eaff"/>
            <rect x="167.09" y="32.3" width="5.93" height="0.89" rx="0.28" fill="#e3eaff"/>
            <path d="M163.85,32.74h0c0-.24-.1-.44-.22-.44h-5.45c-.12,0-.22.2-.22.44h0c0,.25.1.45.22.45h5.45C163.75,33.19,163.8,33,163.85,32.74Z" fill="#e3eaff"/>
            <path d="M166.75,32.74h0c0-.24-.1-.44-.22-.44h-2.16c-.12,0-.22.2-.22.44h0c0,.25.1.45.22.45h2.16C166.65,33.19,166.75,33,166.75,32.74Z" fill="#e3eaff"/>
            <path d="M157.32,34.56h0c0-.25-.1-.45-.22-.45h-2.3c-.12,0-.22.2-.22.45h0c0,.24.1.44.22.44h2.3C157.22,35,157.32,34.76,157.32,34.56Z" fill="#ffc359"/>
            <path d="M161.24,34.56h0c0-.25-.1-.45-.22-.45h-2.84c-.12,0-.22.2-.22.45h0c0,.24.1.44.22.44H161C161.14,35,161.24,34.76,161.24,34.56Z" fill="#0cf"/>
            <path d="M157.1,28c.12,0,.22-.2.22-.45h0c0-.24-.1-.44-.22-.44h-2.3c-.12,0-.22.2-.22.44h0c0,.25.1.45.22.45" fill="#0cf"/>
            <rect x="167.09" y="27.1" width="6.7" height="0.89" rx="0.29" fill="#e3eaff"/>
            <path d="M163.85,27.55h0c0-.24-.1-.44-.22-.44h-5.45c-.12,0-.22.2-.22.44h0c0,.25.1.45.22.45h5.45C163.75,28,163.8,27.8,163.85,27.55Z" fill="#ffc359"/>
            <path d="M166.75,27.55h0c0-.24-.1-.44-.22-.44h-2.16c-.12,0-.22.2-.22.44h0c0,.25.1.45.22.45h2.16C166.65,28,166.75,27.8,166.75,27.55Z" fill="#ffc359"/>
            <path d="M171.54,36.41h0c0-.25-.1-.45-.22-.45H158.18c-.12,0-.22.2-.22.45h0c0,.24.1.44.22.44h13.14C171.44,36.85,171.54,36.65,171.54,36.41Z" fill="#e3eaff"/>
            <path d="M162.59,38.24h0c0-.24-.09-.44-.22-.44h-4.19c-.12,0-.22.2-.22.44h0c0,.25.1.45.22.45h4.19C162.5,38.69,162.59,38.49,162.59,38.24Z" fill="#e3eaff"/>
            <path d="M169.49,38.24h0c0-.24-.1-.44-.22-.44h-6c-.13,0-.22.2-.22.44h0c0,.25.09.45.22.45h6C169.39,38.69,169.49,38.49,169.49,38.24Z" fill="#e3eaff"/>
            <path d="M171.54,47.18h0c0-.25-.1-.44-.22-.44H158.18c-.12,0-.22.19-.22.44h0c0,.25.1.44.22.44h13.14C171.44,47.62,171.54,47.43,171.54,47.18Z" fill="#e3eaff"/>
            <path d="M157.32,49h0c0-.25-.1-.45-.22-.45h-2.3c-.12,0-.22.2-.22.45h0c0,.24.1.44.22.44h2.3C157.22,49.46,157.32,49.26,157.32,49Z" fill="#ff56a9"/>
            <path d="M162.59,49h0c0-.25-.09-.45-.22-.45h-4.19c-.12,0-.22.2-.22.45h0c0,.24.1.44.22.44h4.19C162.5,49.46,162.59,49.26,162.59,49Z" fill="#0cf"/>
            <path d="M169.49,49h0c0-.25-.1-.45-.22-.45h-6c-.13,0-.22.2-.22.45h0c0,.24.09.44.22.44h6C169.39,49.46,169.49,49.26,169.49,49Z" fill="#e3eaff"/>
            <path d="M157.32,40.08h0c0-.25-.1-.45-.22-.45h-2.3c-.12,0-.22.2-.22.45h0c0,.24.1.44.22.44h2.3C157.22,40.52,157.32,40.32,157.32,40.08Z" fill="#ff56a9"/>
            <rect x="157.96" y="39.64" width="12.22" height="0.89" rx="0.27" fill="#ff56a9"/>
            <path d="M157.32,41.91h0c0-.24-.1-.44-.22-.44h-2.3c-.12,0-.22.2-.22.44h0c0,.25.1.45.22.45h2.3C157.22,42.36,157.32,42.16,157.32,41.91Z" fill="#e3eaff"/>
            <path d="M163.85,41.91h0c0-.24-.1-.44-.22-.44h-5.45c-.12,0-.22.2-.22.44h0c0,.25.1.45.22.45h5.45C163.75,42.36,163.8,42.16,163.85,41.91Z" fill="#e3eaff"/>
            <path d="M166.75,41.91h0c0-.24-.1-.44-.22-.44h-2.16c-.12,0-.22.2-.22.44h0c0,.25.1.45.22.45h2.16C166.65,42.36,166.75,42.16,166.75,41.91Z" fill="#e3eaff"/>
            <path d="M157.32,43.69h0c0-.25-.1-.45-.22-.45h-2.3c-.12,0-.22.2-.22.45h0c0,.24.1.44.22.44h2.3C157.22,44.13,157.32,43.93,157.32,43.69Z" fill="#e3eaff"/>
            <rect x="157.96" y="43.25" width="15.39" height="0.89" rx="0.3" fill="#e3eaff"/>
            <path d="M157.32,50.72h0c0-.25-.1-.45-.22-.45h-2.3c-.12,0-.22.2-.22.45h0c0,.24.1.44.22.44h2.3C157.22,51.16,157.32,51,157.32,50.72Z" fill="#e3eaff"/>
            <path d="M174.78,50.72h0c0-.25-.1-.45-.22-.45h-7.25c-.12,0-.22.2-.22.45h0c0,.24.1.44.22.44h7.25C174.68,51.16,174.8,51,174.78,50.72Z" fill="#e3eaff"/>
            <path d="M163.85,50.72h0c0-.25-.1-.45-.22-.45h-5.45c-.12,0-.22.2-.22.45h0c0,.24.1.44.22.44h5.45C163.75,51.16,163.8,51,163.85,50.72Z" fill="#e3eaff"/>
            <path d="M166.75,50.72h0c0-.25-.1-.45-.22-.45h-2.16c-.12,0-.22.2-.22.45h0c0,.24.1.44.22.44h2.16C166.65,51.16,166.75,51,166.75,50.72Z" fill="#e3eaff"/>
            <rect x="157.96" y="52.04" width="10.16" height="0.89" rx="0.24" fill="#ffc359"/>
            <rect x="167.1" y="45.08" width="7.09" height="0.89" rx="0.3" fill="#ff56a9"/>
            <path d="M163.85,45.55h0c0-.24-.1-.44-.22-.44h-5.45c-.12,0-.22.2-.22.44h0c0,.25.1.45.22.45h5.45C163.75,46,163.8,45.77,163.85,45.55Z" fill="#ffc359"/>
            <path d="M166.75,45.55h0c0-.24-.1-.44-.22-.44h-2.16c-.12,0-.22.2-.22.44h0c0,.25.1.45.22.45h2.16C166.65,46,166.75,45.77,166.75,45.55Z" fill="#ffc359"/>
          </g>
          <g>
            <circle cx="181.09" cy="13.82" r="7.26" fill="#ff4dd1"/>
            <g>
              <path d="M180.57,13.14l-2.89,1.06,2.89,1.05v1.08l-4.12-1.57V13.64l4.12-1.57Z" fill="#f9fbfc"/>
              <path d="M181.51,12.07l4.12,1.57v1.12l-4.12,1.57V15.25l2.88-1.05-2.88-1.06Z" fill="#f9fbfc"/>
            </g>
          </g>
          <g>
            <circle cx="133.08" cy="136.18" r="7.87" fill="#ffc240"/>
            <path d="M137.27,135.7A3.82,3.82,0,0,1,137,137a2.25,2.25,0,0,1-.66,1,1.58,1.58,0,0,1-1,.35,1.13,1.13,0,0,1-.66-.19,1,1,0,0,1-.42-.47h-.08a1.77,1.77,0,0,1-1.4.66,1.84,1.84,0,0,1-1.42-.55,2,2,0,0,1-.52-1.48,2.28,2.28,0,0,1,.68-1.73,2.44,2.44,0,0,1,1.78-.66,5.55,5.55,0,0,1,1,.09,4.29,4.29,0,0,1,.86.2l-.11,2.49c0,.47.16.7.38.7s.39-.15.52-.47a3.31,3.31,0,0,0,.2-1.25,3.06,3.06,0,0,0-.34-1.45,2.53,2.53,0,0,0-1-1,2.94,2.94,0,0,0-1.42-.33,3.45,3.45,0,0,0-1.78.43,2.71,2.71,0,0,0-1.17,1.22,4,4,0,0,0-.4,1.84,2.93,2.93,0,0,0,.75,2.15,3,3,0,0,0,2.18.75,5.83,5.83,0,0,0,1.18-.12,7.93,7.93,0,0,0,1.27-.34v1a6,6,0,0,1-2.41.47,4.21,4.21,0,0,1-3-1,3.7,3.7,0,0,1-1.08-2.83,4.81,4.81,0,0,1,.55-2.29,4.12,4.12,0,0,1,1.57-1.61,4.81,4.81,0,0,1,2.35-.58,4.23,4.23,0,0,1,2,.46,3.28,3.28,0,0,1,1.36,1.3A3.82,3.82,0,0,1,137.27,135.7Zm-4.89-.39a1.58,1.58,0,0,0-.3,1c0,.72.29,1.07.87,1.07a.8.8,0,0,0,.7-.32,2.07,2.07,0,0,0,.29-1L134,135a3.81,3.81,0,0,0-.59-.05,1.26,1.26,0,0,0-1,.4Z" fill="#fff"/>
          </g>
          <g>
            <path d="M100.52,7a7.28,7.28,0,0,1-7,7.53H54.8L51.27,18,47.8,14.53H44.13A7.27,7.27,0,0,1,44.13,0H93.52A7.28,7.28,0,0,1,100.52,7Z" fill="#9570ee"/>
            <path d="M80.2,8.77h0A.82.82,0,0,0,79.39,8H46.89a.82.82,0,0,0-.82.82h0a.82.82,0,0,0,.82.81h32.5A.81.81,0,0,0,80.2,8.77Z" fill="#fff"/>
            <path d="M70,4.3h0a.81.81,0,0,0-.81-.81H46.89a.82.82,0,0,0-.82.81h0a.82.82,0,0,0,.82.81H69.23A.81.81,0,0,0,70,4.3Z" fill="#fff"/>
          </g>
          <g>
            <path d="M163,90.79l1.11,2.65c-1,1.37-4,1.44-4,1.44.34-1.09.94-2.88.94-2.88Z" fill="#f7d3a9"/>
            <g>
              <polygon points="162.13 141.33 162.47 142.71 160.84 142.62 160.58 141.49 162.13 141.33" fill="#f79a74"/>
              <path d="M162.43,142.75l.28,1s-4.61.48-4.63.39,2.72-1.52,2.72-1.52Z" fill="#544db8"/>
            </g>
            <g>
              <polygon points="175.78 138.51 176.6 139.68 175.04 140.18 174.4 139.22 175.78 138.51" fill="#f79a74"/>
              <path d="M176.58,139.71l.63.86s-4.17,2.07-4.17,2,2-2.39,2-2.39Z" fill="#544db8"/>
            </g>
            <path d="M163.62,111.53c-5.52,13.54-1.1,30.26-1.1,30.26h-2.21c-7.51-14.79-2.76-30.12-2.76-30.12Z" fill="#ffc240"/>
            <path d="M167.3,110c-.65,14.65,9.13,28.91,9.13,28.91l-2.08.74c-12-11.44-12.73-27.44-12.73-27.44Z" fill="#ffc240"/>
            <g>
              <path d="M159.15,76.5l-.67.2a.48.48,0,0,1-.48-.13l-.84-.92a.46.46,0,0,1-.12-.39,5,5,0,0,1,.42-1.18.44.44,0,0,1,.08-.11.46.46,0,0,1,.66,0l.55.51.54-.14.18.68v1.12A.48.48,0,0,1,159.15,76.5Z" fill="#f79a74"/>
              <path d="M164.44,101.09c-2.4-.71-6.09-8.38-6.66-9.89s.08-14.58.08-14.58l1.89-.37s.88,9.17,1.29,11.6,6.53,9,6.53,9C168.52,99.4,166.84,101.8,164.44,101.09Z" fill="#ff4f72"/>
              <path d="M163.28,83.63c2.13.38,1.88,4.53.63,6.38s-4.47,2.9-5.35,1.74.5-5.75.5-5.75C159.57,84.16,161.15,83.25,163.28,83.63Z" fill="#f79a74"/>
              <path d="M157.28,112.42a21.46,21.46,0,0,1,.41-15.2A9,9,0,0,1,160,95h0a28.7,28.7,0,0,1,4.5-1.52,3.54,3.54,0,0,1,4.14,2.1v.48c0,3.59-1.25,16.85-1.25,16.85Z" fill="#ff4f72"/>
              <path d="M149.6,77.23l-.62.32a.5.5,0,0,1-.5,0l-1-.76a.44.44,0,0,1-.19-.36,5.11,5.11,0,0,1,.21-1.23.35.35,0,0,1,.06-.14.47.47,0,0,1,.64-.13l.63.4.51-.23.3.64a.21.21,0,0,1,0,.11l.16.94A.43.43,0,0,1,149.6,77.23Z" fill="#f79a74"/>
              <path d="M159.07,100.48c-2.48-.28-7.47-7.2-8.29-8.57s-2.48-14.37-2.48-14.37l1.79-.69s2.5,8.84,3.32,11.19,8,7.74,8,7.74C162.8,98.13,161.55,100.76,159.07,100.48Z" fill="#ff4f72"/>
              <path d="M164.48,83.7a2.4,2.4,0,0,1,1.55,3c-.59,1.85.79,3.51,3,6.36s.55,3.58.09,6.45,6.91,4.4,4.7,10.87-14.09,3.41-15.84-2,2.35-6.41.82-10.41,1-4.5,2-5.26-.27-1.93.37-2.76,1.57-.92,1.19-1.66-1,.55-1.38.09,1-1.74.37-2.39-3.5,1.26-2.58-.74c1.75-3.22,5.44-1.66,5.44-1.66A1.67,1.67,0,0,1,164.48,83.7Z" fill="#544db8"/>
            </g>
          </g>
          <path d="M182.15,69.26a7.93,7.93,0,0,0-7.93-7.91h0a7.93,7.93,0,1,0,7.94,7.92Zm-11,.36h0a1,1,0,1,1,1-1,1,1,0,0,1-1,1Zm3.31,4a2.52,2.52,0,0,1-2.82-2.18h5A2.51,2.51,0,0,1,174.5,73.6Zm3.73-4.94v0a1,1,0,1,1-1-1,1,1,0,0,1,1,1Z" fill="#fec800"/>
          <polygon points="68.9 119.44 84.59 119.7 84.69 119.7 101.8 113.22 114.92 113.22 128.98 108.56 140.27 109.84 140.42 109.86 147.04 106.42 146.57 105.5 140.23 108.8 128.98 107.52 128.86 107.5 114.84 112.18 101.7 112.18 84.5 118.66 68.66 118.4 56.11 124.68 56.57 125.61 68.9 119.44" fill="#f9fbfc"/>
          <g>
            <path d="M109.33,98.31s.92-3,4,5.08c2.94,7.71,6,29.44,6,29.44l-1,.17,3.63,2.08-8.47-.18c1.56-14-10.89-34.17-10.89-34.17Z" fill="#544db8"/>
            <path d="M105.8,98.79a97.26,97.26,0,0,0-1.42,11.4c-.52,7.26-6.18,22.47-6.18,22.47l1.33.77,2.09,1.47-8-.17s3.1-10.55,4.14-15.9.35-19.35.35-19.35Z" fill="#544db8"/>
            <g>
              <polyline points="114.3 57.79 113.58 57.34 114.36 55.65 115.01 52.09 115.66 51.96 115.27 55.65 115.66 54.87 116.3 55 115.72 57.14 114.43 58.05" fill="#f7d3a9"/>
              <polygon points="123.48 62.24 124.17 61.03 127.54 59.73 127.54 58.95 123.91 59.82 124.6 59.04 124.17 58.44 122.27 60.34 122.09 61.89 123.48 62.24" fill="#f7d3a9"/>
              <g>
                <path d="M115.39,58,102.8,80.81a10.2,10.2,0,0,1,4.87,3.56c.13.43,5,17.2,5,17.2l-15-.86s-1.29-13.77-1.29-17.48.72-5,.72-5c1.75-3.58,16.48-21.49,16.48-21.49Z" fill="#6db8ff"/>
                <g>
                  <path d="M102.18,77.85,101,80.59c1.08,1.43,4.15,1.49,4.15,1.49-.37-1.14-1-3-1-3Z" fill="#f7d3a9"/>
                  <path d="M101.85,70.38c-2.21.36-2,4.68-.65,6.61s4.41,4,5.32,2.77,0-6.49,0-6.49A4.08,4.08,0,0,0,101.85,70.38Z" fill="#f7d3a9"/>
                </g>
                <path d="M107.39,89.52c2.69,0,14.3-12.43,14.69-13.74s1.72-14,1.72-14l-2.27-.6s-2.66,11.32-3.62,12.88-12.79,9-12.79,9C103.8,86.11,104.7,89.52,107.39,89.52Z" fill="#6db8ff"/>
              </g>
            </g>
            <path d="M104.48,73.63s.35,1.83.09,2-.38-.64-.69-.95-1.09-.26-1,.69,1.56,1.13,1.56,1.13.34,2.41-.29,2.58S101,78,99.86,76.41a2.14,2.14,0,0,1-.17-2.68s-.61-.35-.18-2.16,2.21-1.51,2.59-1.81-1-.7-1-1.3A4.16,4.16,0,0,1,105,69c1.29,1,.69,3.11.69,3.11A3.63,3.63,0,0,1,104.48,73.63Z" fill="#544db8"/>
          </g>
          <g>
            <path d="M112.65,125a4.61,4.61,0,0,1,5.69,3.21l1.68,6.13A4.62,4.62,0,0,1,116.8,140l-2.66.77-.94,3.57-2.62-2.59-2.67.73a4.63,4.63,0,0,1-5.66-3.23l-1.68-6.12a4.62,4.62,0,0,1,3.23-5.67l8.84-2.46Z" fill="#9570ee"/>
            <g>
              <path d="M106.79,135a1,1,0,0,0-1.24-.68,1,1,0,1,0,1.25.71Z" fill="#fff"/>
              <path d="M111.23,133.81a1,1,0,0,0-1.24-.68,1,1,0,1,0,1.25.71Z" fill="#fff"/>
              <path d="M115.75,132.61a1,1,0,1,0-2,.54s0,0,0,0a1,1,0,0,0,1.25.67h0a1,1,0,0,0,.67-1.25Z" fill="#fff"/>
            </g>
          </g>
          <circle cx="68.7" cy="118.66" r="1.64" fill="#ffc240"/>
          <circle cx="129.01" cy="108.12" r="1.64" fill="#ff4f72"/>
        </g>
      </g>
    </g>
  </g>
</svg>
