<svg xmlns="http://www.w3.org/2000/svg" viewBox="0 0 194.8 144.6">
  <title>Asset 1</title>
  <g style="isolation: isolate">
    <g id="Layer_2" data-name="Layer 2">
      <g id="OBJECTS">
        <g>
          <path d="M31,121.74A16.39,16.39,0,0,1,29.4,94.8a61.8,61.8,0,0,0-6.76-8c-1.18-1.18-2.38-2.29-3.59-3.36-.49.41-1,.84-1.43,1.28l-4-2.47a4.38,4.38,0,0,0-6,1.45l-4,6.55a4.38,4.38,0,0,0,1.45,6l4,2.46a31.71,31.71,0,0,0-1.3,9.33L3.2,109.33a4.38,4.38,0,0,0-3,5.4l2.06,7.38a4.38,4.38,0,0,0,5.4,3l4.56-1.27a31,31,0,0,0,4.33,5.74l-2.47,4a4.39,4.39,0,0,0,1.46,6l6.54,4a4.37,4.37,0,0,0,6-1.45l2.47-4a31.68,31.68,0,0,0,7.17,1.23,50.2,50.2,0,0,0,1.81-15.29A16.2,16.2,0,0,1,31,121.74Z" fill="#489aff"/>
          <g>
            <g>
              <rect x="35.46" y="30.77" width="154.86" height="110.03" rx="6.93" transform="translate(225.77 171.57) rotate(-180)" fill="#e3eaff"/>
              <rect x="37.49" y="32.22" width="150.78" height="107.13" rx="5.49" transform="translate(225.77 171.57) rotate(-180)" fill="#6db8ff"/>
              <rect x="44.01" y="37.26" width="137.74" height="92.64" rx="3.38" transform="translate(225.77 167.15) rotate(-180)" fill="#2f6dff"/>
              <path d="M194.07,135.09a5.73,5.73,0,0,1,.73,2.75,5.81,5.81,0,0,1-5.81,5.81H36.78a5.77,5.77,0,0,1-5.09-8.56Z" fill="#e3eaff"/>
            </g>
            <path d="M194.07,140.59a5.77,5.77,0,0,1-5.08,3.06H36.78a5.78,5.78,0,0,1-5.09-3.06Z" fill="#c8d6f2"/>
          </g>
          <path d="M42.38,30.77H145.72V99.82a2.77,2.77,0,0,1-2.77,2.77H35.46V37.7A6.92,6.92,0,0,1,42.38,30.77Z" fill="#424261" opacity="0.2" style="mix-blend-mode: multiply"/>
          <rect x="20.95" y="22.75" width="120.97" height="76.73" rx="2.76" transform="translate(162.87 122.23) rotate(-180)" fill="#e3eaff" opacity="0.21"/>
          <rect x="16.11" y="17.57" width="120.97" height="76.73" rx="2.76" transform="translate(153.19 111.86) rotate(-180)" fill="#f9fbfc"/>
          <rect x="157.68" y="53.51" width="15.73" height="16.42" rx="1.73" transform="translate(331.09 123.44) rotate(-180)" fill="#424261" opacity="0.2" style="mix-blend-mode: multiply"/>
          <rect x="158.59" y="77.36" width="15.73" height="16.42" rx="1.73" transform="translate(332.91 171.14) rotate(-180)" fill="#6db8ff"/>
          <rect x="158.59" y="100.69" width="15.73" height="16.42" rx="1.73" transform="translate(332.91 217.79) rotate(-180)" fill="#6db8ff"/>
          <g>
            <path d="M163,107.09a3.74,3.74,0,0,1,7.48,0s.52,4-3.74,7.11C162.49,111.05,163,107.09,163,107.09Z" fill="#9570ee"/>
            <path d="M166.54,109.79a2.71,2.71,0,1,0-2.48-2.48A2.71,2.71,0,0,0,166.54,109.79Z" fill="#f9fbfc"/>
          </g>
          <g>
            <g>
              <g>
                <path d="M161.66,85.35a5.17,5.17,0,1,0,5.17-5.17A5.16,5.16,0,0,0,161.66,85.35Z" fill="#9570ee"/>
                <path d="M162.66,85.35a4.17,4.17,0,1,0,4.17-4.17A4.17,4.17,0,0,0,162.66,85.35Z" fill="#f9fbfc"/>
                <path d="M166.83,81.18a4.18,4.18,0,0,0-4,3,.16.16,0,0,1-.16.12h0a.16.16,0,0,1-.16-.21,4.51,4.51,0,0,1,8.64,0,.16.16,0,0,1-.16.21h0a.16.16,0,0,1-.16-.12A4.18,4.18,0,0,0,166.83,81.18Z" fill="#bb87ee"/>
                <path d="M162.2,85.48a.51.51,0,0,1,.5.43,4.17,4.17,0,0,0,8.26,0,.51.51,0,0,1,.5-.43h0a.5.5,0,0,1,.49.57,5.17,5.17,0,0,1-10.24,0,.5.5,0,0,1,.49-.57Z" fill="#7f57ee"/>
                <path d="M162.66,85.35a4.17,4.17,0,1,0,4.17-4.17A4.17,4.17,0,0,0,162.66,85.35Z" fill="#f9fbfc"/>
                <path d="M162.77,86.7a.15.15,0,0,1,.15.11,4.18,4.18,0,0,0,7.82,0,.15.15,0,0,1,.16-.11h0a.16.16,0,0,1,.15.22,4.5,4.5,0,0,1-8.44,0,.16.16,0,0,1,.16-.22Z" fill="#9570ee"/>
              </g>
              <path d="M166.84,85.72h0a.2.2,0,0,0,.2-.2V82.58a.2.2,0,0,0-.2-.2h0a.2.2,0,0,0-.2.2v2.94A.2.2,0,0,0,166.84,85.72Z" fill="#9570ee"/>
              <path d="M167,85.41h0a.21.21,0,0,0-.29,0l-1.81,1.53a.21.21,0,0,0,0,.29h0a.2.2,0,0,0,.28,0L167,85.69A.2.2,0,0,0,167,85.41Z" fill="#9570ee"/>
            </g>
            <g>
              <rect x="166.8" y="81.46" width="0.15" height="0.4" transform="translate(333.74 163.33) rotate(-180)" fill="#ced6ff"/>
              <rect x="166.8" y="88.77" width="0.15" height="0.4" transform="translate(333.74 177.94) rotate(-180)" fill="#ced6ff"/>
            </g>
            <g>
              <rect x="170.45" y="85.12" width="0.15" height="0.4" transform="translate(85.21 255.84) rotate(-90)" fill="#ced6ff"/>
              <rect x="163.14" y="85.12" width="0.15" height="0.4" transform="translate(77.9 248.54) rotate(-90)" fill="#ced6ff"/>
            </g>
            <g>
              <rect x="169.38" y="82.53" width="0.15" height="0.4" transform="translate(230.85 261.03) rotate(-135.02)" fill="#ced6ff"/>
              <rect x="164.21" y="87.7" width="0.15" height="0.4" transform="translate(218.3 266.23) rotate(-135)" fill="#ced6ff"/>
            </g>
            <g>
              <rect x="169.38" y="87.7" width="0.15" height="0.4" transform="translate(-12.52 145.58) rotate(-45)" fill="#ced6ff"/>
              <rect x="164.21" y="82.53" width="0.15" height="0.4" transform="translate(-10.41 140.32) rotate(-44.97)" fill="#ced6ff"/>
            </g>
          </g>
          <g>
            <rect x="158.59" y="52.99" width="15.73" height="16.42" rx="1.73" transform="translate(332.91 122.4) rotate(-180)" fill="#6db8ff"/>
            <g>
              <polyline points="175.07 67.72 173.78 66.82 173.19 64.68 173.84 64.55 174.23 65.33 173.84 61.63 174.49 61.76 175.14 65.33 175.92 67.01 175.2 67.47" fill="#f7d3a9"/>
              <polygon points="167.41 71.57 167.23 70.02 165.33 68.11 164.9 68.72 165.59 69.5 161.96 68.63 161.96 69.41 165.33 70.71 166.02 71.92 167.41 71.57" fill="#f7d3a9"/>
              <g>
                <g>
                  <polygon points="191.06 110.02 184 144.6 178.65 144.03 182.28 142.69 180.94 142.31 182.85 110.02 191.06 110.02" fill="#544db8"/>
                  <path d="M179.79,109.45s-9,8.4-7.64,18.53c1.53,8,4.78,11.08,4.78,11.08l.95-.19-1.48,3.91,4.3-4.58s-5.3-7.31-2-14.9A20.47,20.47,0,0,1,189.15,113s-6.16-5.59-6.59-5.44A29,29,0,0,0,179.79,109.45Z" fill="#544db8"/>
                  <g>
                    <path d="M176,66.42s14.76,17.91,16.48,21.49c0,0,.72,1.29.72,5s-1.29,17.48-1.29,17.48l-15,.86s4.87-16.76,5-17.19a10.2,10.2,0,0,1,4.87-3.58L174.11,67.71Z" fill="#ff8b40"/>
                    <g>
                      <path d="M185.32,88.76s-.63,1.86-1,3c0,0,3.07-.06,4.16-1.49l-1.15-2.75Z" fill="#f7d3a9"/>
                      <path d="M183,83s-.91,5.28,0,6.49,4-.84,5.32-2.77,1.56-6.25-.65-6.61A4.08,4.08,0,0,0,183,83Z" fill="#f7d3a9"/>
                    </g>
                    <path d="M184.38,92.74s-11.83-7.45-12.79-9S168,70.89,168,70.89l-2.29.57s1.33,12.69,1.71,14,12,13.74,14.7,13.74S185.71,95.79,184.38,92.74Z" fill="#ff8b40"/>
                  </g>
                </g>
                <path d="M189.35,80.3A4.47,4.47,0,0,0,185,78.66c-2.76.51-3.45-.09-3.45-.09s.6,3,2.5,3.71,2.42.52,2.42.52a6.47,6.47,0,0,0-1.3,1.82c-.25.78.87-1,1.3-.35s0,1.9-.86,1.82-.35.6,0,1.29.86,1.56,1.38,1.3a6.11,6.11,0,0,0,3-3.46C190.73,83.06,190.91,81,189.35,80.3Z" fill="#544db8"/>
              </g>
            </g>
          </g>
          <rect x="93.36" y="25.6" width="36.29" height="61.17" rx="1.3" transform="translate(223 112.38) rotate(-180)" fill="#e3eaff"/>
          <rect x="99.92" y="30.53" width="23.5" height="5.18" rx="1.04" transform="translate(223.35 66.24) rotate(-180)" fill="#6db8ff"/>
          <path d="M115.56,64.53h4.67a2,2,0,0,0,2-2h0a2,2,0,0,0-2-2h-4.67a2,2,0,0,0-2,2h0A2,2,0,0,0,115.56,64.53Z" fill="#6db8ff"/>
          <path d="M102.08,64.53h4.67a2,2,0,0,0,2-2h0a2,2,0,0,0-2-2h-4.67a2,2,0,0,0-2,2h0A2,2,0,0,0,102.08,64.53Z" fill="#9570ee"/>
          <rect x="98.71" y="40.9" width="25.23" height="3.97" transform="translate(222.66 85.77) rotate(-180)" fill="#f9fbfc"/>
          <rect x="98.71" y="47.64" width="25.23" height="3.97" transform="translate(222.66 99.25) rotate(-180)" fill="#f9fbfc"/>
          <rect x="103.98" y="54.12" width="14.52" height="0.91" transform="translate(222.48 109.14) rotate(-180)" fill="#cdd4ff"/>
          <path d="M18.57,75.46H63.94a5.05,5.05,0,0,0,5-5.06h0a5,5,0,0,0-5-5.05H18.57a5,5,0,0,0-5.05,5.05h0A5.05,5.05,0,0,0,18.57,75.46Z" fill="#9570ee"/>
          <g>
            <path d="M57.84,32.6H86.1a4.15,4.15,0,0,0,4.15-4.15h0a4.14,4.14,0,0,0-4.15-4.14H57.84a4.14,4.14,0,0,0-4.14,4.14h0A4.14,4.14,0,0,0,57.84,32.6Z" fill="#e3eaff"/>
            <path d="M79.36,28.45a1.3,1.3,0,1,0,1.29-1.29A1.3,1.3,0,0,0,79.36,28.45Z" fill="#ffc240"/>
            <path d="M70.46,28.45a1.3,1.3,0,1,0,1.3-1.29A1.3,1.3,0,0,0,70.46,28.45Z" fill="#90c240"/>
            <path d="M62.25,28.45a1.3,1.3,0,1,0,1.3-1.29A1.3,1.3,0,0,0,62.25,28.45Z" fill="#eb4f24"/>
          </g>
          <g>
            <circle cx="166.63" cy="62.21" r="3.16" fill="#fff"/>
            <g>
              <path d="M161.79,60v4.58a1.58,1.58,0,0,0,1.57,1.57h6.45a1.57,1.57,0,0,0,1.57-1.57V60a1.57,1.57,0,0,0-1.57-1.57h-.55l-.8-1.13a.35.35,0,0,0-.28-.14H165a.32.32,0,0,0-.27.14l-.8,1.13h-.56A1.58,1.58,0,0,0,161.79,60Zm2.48,2.25a2.32,2.32,0,1,1,2.32,2.32A2.32,2.32,0,0,1,164.27,62.22Z" fill="#9570ee"/>
              <circle cx="166.59" cy="62.22" r="1.53" fill="#6db8ff"/>
            </g>
          </g>
          <g>
            <rect x="51.7" y="41.09" width="27.81" height="18.27" rx="2.04" transform="translate(131.2 100.45) rotate(-180)" fill="#e3eaff"/>
            <path d="M65.57,50.09h.06A.74.74,0,0,0,66,50L76.7,44A.73.73,0,0,0,77,43a.72.72,0,0,0-1-.28L65.6,48.53,55.21,42.76a.74.74,0,0,0-1,.28.75.75,0,0,0,.29,1l10.72,6A.74.74,0,0,0,65.57,50.09Z" fill="#fd4940"/>
          </g>
          <rect x="10.93" y="12.9" width="34.48" height="44.58" rx="1.81" transform="translate(56.33 70.39) rotate(-180)" fill="#544db8"/>
          <g>
            <path d="M37.7,18.88H40c.12,0,.22-.2.22-.45h0c0-.24-.1-.44-.22-.44H37.7c-.12,0-.22.2-.22.44h0C37.48,18.68,37.58,18.88,37.7,18.88Z" fill="#0cf"/>
            <path d="M23.48,18.88H36.62c.12,0,.22-.2.22-.45h0c0-.24-.1-.44-.22-.44H23.48c-.12,0-.22.2-.22.44h0C23.26,18.68,23.36,18.88,23.48,18.88Z" fill="#0cf"/>
            <path d="M32.43,20.71h4.19c.12,0,.22-.19.22-.44h0c0-.25-.1-.44-.22-.44H32.43c-.13,0-.22.19-.22.44h0C32.21,20.52,32.3,20.71,32.43,20.71Z" fill="#ff56a9"/>
            <path d="M25.53,20.71h6c.13,0,.22-.19.22-.44h0c0-.25-.09-.44-.22-.44h-6c-.12,0-.22.19-.22.44h0C25.31,20.52,25.41,20.71,25.53,20.71Z" fill="#e3eaff"/>
            <path d="M23.48,29.65H36.62c.12,0,.22-.2.22-.44h0c0-.25-.1-.45-.22-.45H23.48c-.12,0-.22.2-.22.45h0C23.26,29.45,23.36,29.65,23.48,29.65Z" fill="#e3eaff"/>
            <path d="M37.7,31.49H40c.12,0,.22-.2.22-.45h0c0-.24-.1-.44-.22-.44H37.7c-.12,0-.22.2-.22.44h0C37.48,31.29,37.58,31.49,37.7,31.49Z" fill="#0cf"/>
            <path d="M32.43,31.49h4.19c.12,0,.22-.2.22-.45h0c0-.24-.1-.44-.22-.44H32.43c-.13,0-.22.2-.22.44h0C32.21,31.29,32.3,31.49,32.43,31.49Z" fill="#e3eaff"/>
            <path d="M25.53,31.49h6c.13,0,.22-.2.22-.45h0c0-.24-.09-.44-.22-.44h-6c-.12,0-.22.2-.22.44h0C25.31,31.29,25.41,31.49,25.53,31.49Z" fill="#ff56a9"/>
            <path d="M20.22,22.55h16.4c.12,0,.22-.2.22-.44h0c0-.25-.1-.45-.22-.45H20.22c-.12,0-.22.2-.22.45h0C20,22.35,20.1,22.55,20.22,22.55Z" fill="#ff56a9"/>
            <rect x="23.42" y="23.5" width="4.29" height="0.89" rx="0.23" transform="translate(51.13 47.88) rotate(-180)" fill="#0cf"/>
            <path d="M31.17,24.39h5.45c.12,0,.22-.2.22-.45h0c0-.24-.1-.44-.22-.44H31.17c-.12,0-.22.2-.22.44h0C31,24.19,31.05,24.39,31.17,24.39Z" fill="#e3eaff"/>
            <path d="M28.27,24.39h2.16c.12,0,.22-.2.22-.45h0c0-.24-.1-.44-.22-.44H28.27c-.12,0-.22.2-.22.44h0C28.05,24.19,28.15,24.39,28.27,24.39Z" fill="#0cf"/>
            <path d="M37.7,26.16H40c.12,0,.22-.2.22-.44h0c0-.25-.1-.45-.22-.45H37.7c-.12,0-.22.2-.22.45h0C37.48,26,37.58,26.16,37.7,26.16Z" fill="#e3eaff"/>
            <path d="M20.22,26.16h16.4c.12,0,.22-.2.22-.44h0c0-.25-.1-.45-.22-.45H20.22c-.12,0-.22.2-.22.45h0C20,26,20.1,26.16,20.22,26.16Z" fill="#e3eaff"/>
            <path d="M37.7,33.19H40c.12,0,.22-.2.22-.45h0c0-.24-.1-.44-.22-.44H37.7c-.12,0-.22.2-.22.44h0C37.48,33,37.58,33.19,37.7,33.19Z" fill="#e3eaff"/>
            <rect x="21.78" y="32.3" width="5.93" height="0.89" rx="0.28" transform="translate(49.49 65.49) rotate(-180)" fill="#e3eaff"/>
            <path d="M31.17,33.19h5.45c.12,0,.22-.2.22-.45h0c0-.24-.1-.44-.22-.44H31.17c-.12,0-.22.2-.22.44h0C31,33,31.05,33.19,31.17,33.19Z" fill="#e3eaff"/>
            <path d="M28.27,33.19h2.16c.12,0,.22-.2.22-.45h0c0-.24-.1-.44-.22-.44H28.27c-.12,0-.22.2-.22.44h0C28.05,33,28.15,33.19,28.27,33.19Z" fill="#e3eaff"/>
            <path d="M37.7,35H40c.12,0,.22-.2.22-.44h0c0-.25-.1-.45-.22-.45H37.7c-.12,0-.22.2-.22.45h0C37.48,34.76,37.58,35,37.7,35Z" fill="#ffc359"/>
            <path d="M33.78,35h2.84c.12,0,.22-.2.22-.44h0c0-.25-.1-.45-.22-.45H33.78c-.12,0-.22.2-.22.45h0C33.56,34.76,33.66,35,33.78,35Z" fill="#0cf"/>
            <path d="M40,28c.12,0,.22-.2.22-.45h0c0-.24-.1-.44-.22-.44H37.7c-.12,0-.22.2-.22.44h0c0,.25.1.45.22.45" fill="#0cf"/>
            <rect x="21.01" y="27.11" width="6.7" height="0.89" rx="0.29" transform="translate(48.72 55.1) rotate(-180)" fill="#e3eaff"/>
            <path d="M31.17,28h5.45c.12,0,.22-.2.22-.45h0c0-.24-.1-.44-.22-.44H31.17c-.12,0-.22.2-.22.44h0C31,27.8,31.05,28,31.17,28Z" fill="#ffc359"/>
            <path d="M28.27,28h2.16c.12,0,.22-.2.22-.45h0c0-.24-.1-.44-.22-.44H28.27c-.12,0-.22.2-.22.44h0C28.05,27.8,28.15,28,28.27,28Z" fill="#ffc359"/>
            <path d="M23.48,36.85H36.62c.12,0,.22-.2.22-.44h0c0-.25-.1-.45-.22-.45H23.48c-.12,0-.22.2-.22.45h0C23.26,36.65,23.36,36.85,23.48,36.85Z" fill="#e3eaff"/>
            <path d="M32.43,38.69h4.19c.12,0,.22-.2.22-.45h0c0-.24-.1-.44-.22-.44H32.43c-.13,0-.22.2-.22.44h0C32.21,38.49,32.3,38.69,32.43,38.69Z" fill="#e3eaff"/>
            <path d="M25.53,38.69h6c.13,0,.22-.2.22-.45h0c0-.24-.09-.44-.22-.44h-6c-.12,0-.22.2-.22.44h0C25.31,38.49,25.41,38.69,25.53,38.69Z" fill="#e3eaff"/>
            <path d="M23.48,47.62H36.62c.12,0,.22-.19.22-.44h0c0-.25-.1-.44-.22-.44H23.48c-.12,0-.22.19-.22.44h0C23.26,47.43,23.36,47.62,23.48,47.62Z" fill="#e3eaff"/>
            <path d="M37.7,49.46H40c.12,0,.22-.2.22-.44h0c0-.25-.1-.45-.22-.45H37.7c-.12,0-.22.2-.22.45h0C37.48,49.26,37.58,49.46,37.7,49.46Z" fill="#ff56a9"/>
            <path d="M32.43,49.46h4.19c.12,0,.22-.2.22-.44h0c0-.25-.1-.45-.22-.45H32.43c-.13,0-.22.2-.22.45h0C32.21,49.26,32.3,49.46,32.43,49.46Z" fill="#0cf"/>
            <path d="M25.53,49.46h6c.13,0,.22-.2.22-.44h0c0-.25-.09-.45-.22-.45h-6c-.12,0-.22.2-.22.45h0C25.31,49.26,25.41,49.46,25.53,49.46Z" fill="#e3eaff"/>
            <path d="M37.7,40.52H40c.12,0,.22-.2.22-.44h0c0-.25-.1-.45-.22-.45H37.7c-.12,0-.22.2-.22.45h0C37.48,40.32,37.58,40.52,37.7,40.52Z" fill="#ff56a9"/>
            <rect x="24.62" y="39.63" width="12.22" height="0.89" rx="0.27" transform="translate(61.46 80.16) rotate(-180)" fill="#ff56a9"/>
            <path d="M37.7,42.36H40c.12,0,.22-.2.22-.45h0c0-.24-.1-.44-.22-.44H37.7c-.12,0-.22.2-.22.44h0C37.48,42.16,37.58,42.36,37.7,42.36Z" fill="#e3eaff"/>
            <path d="M31.17,42.36h5.45c.12,0,.22-.2.22-.45h0c0-.24-.1-.44-.22-.44H31.17c-.12,0-.22.2-.22.44h0C31,42.16,31.05,42.36,31.17,42.36Z" fill="#e3eaff"/>
            <path d="M28.27,42.36h2.16c.12,0,.22-.2.22-.45h0c0-.24-.1-.44-.22-.44H28.27c-.12,0-.22.2-.22.44h0C28.05,42.16,28.15,42.36,28.27,42.36Z" fill="#e3eaff"/>
            <path d="M37.7,44.13H40c.12,0,.22-.2.22-.44h0c0-.25-.1-.45-.22-.45H37.7c-.12,0-.22.2-.22.45h0C37.48,43.93,37.58,44.13,37.7,44.13Z" fill="#e3eaff"/>
            <rect x="21.45" y="43.24" width="15.39" height="0.89" rx="0.3" transform="translate(58.29 87.38) rotate(-180)" fill="#e3eaff"/>
            <path d="M37.7,51.16H40c.12,0,.22-.2.22-.44h0c0-.25-.1-.45-.22-.45H37.7c-.12,0-.22.2-.22.45h0C37.48,51,37.58,51.16,37.7,51.16Z" fill="#e3eaff"/>
            <path d="M20.24,51.16h7.25c.12,0,.22-.2.22-.44h0c0-.25-.1-.45-.22-.45H20.24c-.12,0-.22.2-.22.45h0C20,51,20.12,51.16,20.24,51.16Z" fill="#e3eaff"/>
            <path d="M31.17,51.16h5.45c.12,0,.22-.2.22-.44h0c0-.25-.1-.45-.22-.45H31.17c-.12,0-.22.2-.22.45h0C31,51,31.05,51.16,31.17,51.16Z" fill="#e3eaff"/>
            <path d="M28.27,51.16h2.16c.12,0,.22-.2.22-.44h0c0-.25-.1-.45-.22-.45H28.27c-.12,0-.22.2-.22.45h0C28.05,51,28.15,51.16,28.27,51.16Z" fill="#e3eaff"/>
            <rect x="26.68" y="52.05" width="10.16" height="0.89" rx="0.24" transform="translate(63.52 104.98) rotate(-180)" fill="#ffc359"/>
            <rect x="20.62" y="45.08" width="7.09" height="0.89" rx="0.3" transform="translate(48.32 91.05) rotate(-180)" fill="#ff56a9"/>
            <path d="M31.17,46h5.45c.12,0,.22-.2.22-.45h0c0-.24-.1-.44-.22-.44H31.17c-.12,0-.22.2-.22.44h0C31,45.77,31.05,46,31.17,46Z" fill="#ffc359"/>
            <path d="M28.27,46h2.16c.12,0,.22-.2.22-.45h0c0-.24-.1-.44-.22-.44H28.27c-.12,0-.22.2-.22.44h0C28.05,45.77,28.15,46,28.27,46Z" fill="#ffc359"/>
          </g>
          <g>
            <circle cx="13.71" cy="13.82" r="7.26" fill="#ff4dd1"/>
            <g>
              <path d="M14.23,12.07l4.12,1.57v1.12l-4.12,1.57V15.25l2.89-1.05-2.89-1.06Z" fill="#f9fbfc"/>
              <path d="M13.29,13.14,10.41,14.2l2.88,1.05v1.08L9.17,14.76V13.64l4.12-1.57Z" fill="#f9fbfc"/>
            </g>
          </g>
          <g>
            <circle cx="61.72" cy="136.2" r="7.87" transform="translate(-85.65 110.83) rotate(-55.86)" fill="#ffc240"/>
            <path d="M58,133.8a3.28,3.28,0,0,1,1.36-1.3,4.19,4.19,0,0,1,2-.46,4.76,4.76,0,0,1,2.35.58,4.05,4.05,0,0,1,1.57,1.61,4.76,4.76,0,0,1,.55,2.29,3.7,3.7,0,0,1-1.08,2.83,4.23,4.23,0,0,1-3,1,6.06,6.06,0,0,1-2.41-.47v-1a7.93,7.93,0,0,0,1.27.34,6.47,6.47,0,0,0,1.18.12,3,3,0,0,0,2.18-.75,2.91,2.91,0,0,0,.75-2.15,4,4,0,0,0-.4-1.84,2.76,2.76,0,0,0-1.17-1.22,3.5,3.5,0,0,0-1.78-.43,3,3,0,0,0-1.42.33,2.46,2.46,0,0,0-1,1,3.1,3.1,0,0,0-.34,1.45,3.33,3.33,0,0,0,.2,1.25c.13.32.3.47.52.47s.38-.23.38-.7l-.11-2.49a4.39,4.39,0,0,1,.86-.2,5.93,5.93,0,0,1,1-.09,2.45,2.45,0,0,1,1.78.66,2.27,2.27,0,0,1,.68,1.73,2,2,0,0,1-.52,1.48,1.87,1.87,0,0,1-1.42.55,1.76,1.76,0,0,1-1.4-.66h-.08a1,1,0,0,1-.42.47,1.14,1.14,0,0,1-.66.19,1.56,1.56,0,0,1-1-.35,2.28,2.28,0,0,1-.66-1,3.8,3.8,0,0,1-.23-1.34A3.91,3.91,0,0,1,58,133.8Zm4.38,1.51a1.25,1.25,0,0,0-1-.4,3.51,3.51,0,0,0-.59.05l.07,1.13a2,2,0,0,0,.29,1,.8.8,0,0,0,.7.32c.58,0,.87-.35.87-1.07A1.58,1.58,0,0,0,62.42,135.31Z" fill="#fff"/>
          </g>
          <g>
            <path d="M101.28,0h49.39a7.27,7.27,0,0,1,0,14.53H147L143.53,18,140,14.53H101.28a7.27,7.27,0,0,1,0-14.53Z" fill="#9570ee"/>
            <path d="M115.41,9.58h32.5a.82.82,0,0,0,.82-.81h0a.82.82,0,0,0-.82-.82h-32.5a.82.82,0,0,0-.81.82h0A.81.81,0,0,0,115.41,9.58Z" fill="#fff"/>
            <path d="M125.57,5.11h22.34a.82.82,0,0,0,.82-.81h0a.82.82,0,0,0-.82-.81H125.57a.81.81,0,0,0-.81.81h0A.81.81,0,0,0,125.57,5.11Z" fill="#fff"/>
          </g>
          <g>
            <path d="M33.77,92s.6,1.79.94,2.88c0,0-3-.07-4-1.44l1.11-2.65Z" fill="#f7d3a9"/>
            <g>
              <polygon points="34.22 141.49 33.96 142.62 32.33 142.71 32.67 141.33 34.22 141.49" fill="#f79a74"/>
              <path d="M34,142.62s2.74,1.43,2.72,1.52-4.63-.39-4.63-.39l.28-1Z" fill="#544db8"/>
            </g>
            <g>
              <polygon points="20.4 139.22 19.76 140.18 18.2 139.68 19.02 138.51 20.4 139.22" fill="#f79a74"/>
              <path d="M19.76,140.18s2,2.32,2,2.39-4.17-2-4.17-2l.63-.86Z" fill="#544db8"/>
            </g>
            <path d="M37.25,111.67S42,127,34.49,141.79H32.28s4.42-16.72-1.1-30.26Z" fill="#ffc240"/>
            <path d="M33.18,112.21s-.73,16-12.73,27.44l-2.08-.74S28.15,124.65,27.5,110Z" fill="#ffc240"/>
            <g>
              <path d="M35.33,76.11v-1a.5.5,0,0,1,0-.12l.18-.68.54.14.55-.51a.47.47,0,0,1,.74.14,5.23,5.23,0,0,1,.42,1.18.47.47,0,0,1-.12.39l-.84.92a.48.48,0,0,1-.48.13l-.67-.2A.47.47,0,0,1,35.33,76.11Z" fill="#f79a74"/>
              <path d="M27.23,96.85s6.12-6.57,6.53-9,1.29-11.6,1.29-11.6l1.89.37s.65,13.07.08,14.58-4.26,9.18-6.66,9.89S26.28,99.4,27.23,96.85Z" fill="#ff4f72"/>
              <path d="M35.74,86s1.38,4.59.5,5.75-4.1.11-5.35-1.74-1.5-6,.63-6.38S35.23,84.16,35.74,86Z" fill="#f79a74"/>
              <path d="M27.45,112.91S26.2,99.65,26.2,96.06c0-.17,0-.32,0-.48a3.54,3.54,0,0,1,4.14-2.1A28.68,28.68,0,0,1,34.84,95h0a9.09,9.09,0,0,1,2.27,2.22,21.44,21.44,0,0,1,.41,15.2Z" fill="#ff4f72"/>
              <path d="M45,76.79l.16-.94a.35.35,0,0,1,0-.11l.3-.64.51.23.63-.4a.46.46,0,0,1,.7.27,5.47,5.47,0,0,1,.21,1.23.45.45,0,0,1-.19.36l-1,.76a.48.48,0,0,1-.5,0l-.62-.32A.44.44,0,0,1,45,76.79Z" fill="#f79a74"/>
              <path d="M33.39,95.78s7.18-5.39,8-7.74,3.32-11.19,3.32-11.19l1.79.69s-1.66,13-2.48,14.37-5.81,8.29-8.29,8.57S32,98.13,33.39,95.78Z" fill="#ff4f72"/>
              <path d="M30.62,83.62s3.69-1.56,5.44,1.66c.92,2-2,.09-2.58.74s.74,1.93.37,2.39-1-.83-1.38-.09.55.83,1.19,1.66-.55,2,.37,2.76S37.53,94,36,98s2.57,5,.82,10.41-13.63,8.47-15.84,2,5.16-8,4.7-10.87-2.12-3.6.09-6.45,3.59-4.51,3-6.36A2.41,2.41,0,0,1,30.62,83.62Z" fill="#544db8"/>
            </g>
          </g>
          <path d="M12.65,69.27a7.93,7.93,0,1,0,7.93-7.92A7.92,7.92,0,0,0,12.65,69.27Zm11,.35a1,1,0,1,1,1-1A1,1,0,0,1,23.61,69.62Zm-5.53,1.8h5a2.52,2.52,0,0,1-5,0Zm-1.51-2.76a1,1,0,1,1,1,1A1,1,0,0,1,16.57,68.66Z" fill="#fec800"/>
          <polygon points="138.23 125.61 138.69 124.68 126.14 118.4 110.3 118.66 93.1 112.18 79.96 112.18 65.94 107.5 65.82 107.52 54.57 108.8 48.23 105.5 47.76 106.42 54.38 109.86 54.53 109.84 65.82 108.56 79.88 113.22 93 113.22 110.11 119.7 110.21 119.7 125.9 119.44 138.23 125.61" fill="#f9fbfc"/>
          <g>
            <path d="M92.15,100.73S79.7,120.88,81.26,134.9l-8.47.18L76.42,133l-1-.17s3.11-21.73,6.05-29.44c3.08-8.08,4-5.08,4-5.08Z" fill="#544db8"/>
            <path d="M96.64,99.48s-.69,14,.35,19.35,4.14,15.9,4.14,15.9l-7.95.17,2.09-1.47,1.33-.77s-5.66-15.21-6.18-22.47A96.07,96.07,0,0,0,89,98.79Z" fill="#544db8"/>
            <g>
              <polyline points="80.37 58.05 79.08 57.14 78.5 55 79.14 54.87 79.53 55.65 79.14 51.96 79.79 52.09 80.44 55.65 81.22 57.34 80.5 57.79" fill="#f7d3a9"/>
              <polygon points="72.71 61.89 72.53 60.34 70.63 58.44 70.2 59.04 70.89 59.82 67.26 58.95 67.26 59.73 70.63 61.03 71.32 62.24 72.71 61.89" fill="#f7d3a9"/>
              <g>
                <path d="M81.27,56.74S96,74.65,97.75,78.23c0,0,.72,1.29.72,5s-1.29,17.48-1.29,17.48l-15.05.86s4.87-16.77,5-17.2A10.2,10.2,0,0,1,92,80.81L79.41,58Z" fill="#6db8ff"/>
                <g>
                  <path d="M90.62,79.08s-.63,1.86-1,3c0,0,3.07-.06,4.15-1.49l-1.15-2.74Z" fill="#f7d3a9"/>
                  <path d="M88.28,73.27s-.91,5.29,0,6.49,4-.84,5.32-2.77,1.56-6.25-.65-6.61A4.08,4.08,0,0,0,88.28,73.27Z" fill="#f7d3a9"/>
                </g>
                <path d="M89.68,83.06s-11.83-7.44-12.79-9-3.62-12.88-3.62-12.88L71,61.78s1.33,12.69,1.72,14,12,13.74,14.69,13.74S91,86.11,89.68,83.06Z" fill="#6db8ff"/>
              </g>
            </g>
            <path d="M89.12,72.09s-.6-2.07.69-3.11a4.17,4.17,0,0,1,3.89-.52c0,.6-1.38,1-1,1.3s2.16,0,2.59,1.81-.18,2.16-.18,2.16a2.15,2.15,0,0,1-.17,2.68c-1.12,1.55-3.66,2.84-4.29,2.67s-.29-2.58-.29-2.58,1.47-.18,1.56-1.13-.69-1-1-.69-.43,1.12-.69.95.09-2,.09-2A3.65,3.65,0,0,1,89.12,72.09Z" fill="#544db8"/>
          </g>
          <g>
            <path d="M82.16,125,91,127.46a4.62,4.62,0,0,1,3.23,5.67l-1.68,6.12a4.62,4.62,0,0,1-5.66,3.23l-2.67-.73-2.62,2.59-.94-3.57L78,140a4.62,4.62,0,0,1-3.22-5.66l1.68-6.13A4.62,4.62,0,0,1,82.16,125Z" fill="#9570ee"/>
            <g>
              <path d="M88,135.07a1,1,0,1,0,1.25-.71A1,1,0,0,0,88,135.07Z" fill="#fff"/>
              <path d="M83.56,133.84a1,1,0,1,0,1.25-.71A1,1,0,0,0,83.56,133.84Z" fill="#fff"/>
              <path d="M79.08,132.61a1,1,0,0,0,.71,1.26,1,1,0,0,0,1.26-.72,1,1,0,0,0-2-.54Z" fill="#fff"/>
            </g>
          </g>
          <circle cx="126.1" cy="118.66" r="1.64" fill="#ffc240"/>
          <circle cx="65.79" cy="108.12" r="1.64" fill="#ff4f72"/>
        </g>
      </g>
    </g>
  </g>
</svg>
