<svg xmlns="http://www.w3.org/2000/svg" viewBox="0 0 268.44 268">
  <title>Asset 1</title>
  <g style="isolation: isolate">
    <g id="Layer_2" data-name="Layer 2">
      <g id="OBJECTS">
        <g>
          <path d="M8.83,0H113.06c12.1,10.07,24.48,24.92,34.44,46.83,30,66,20.67,78.67,60,112.67,33.34,28.82,64.75,67.69,60.57,108.5H8.83A8.83,8.83,0,0,1,0,259.17V8.83A8.83,8.83,0,0,1,8.83,0Z" fill="#6db8ff"/>
          <g>
            <path d="M52.28,191.23a16.39,16.39,0,0,1-1.55-26.94,61.8,61.8,0,0,0-6.76-8c-1.18-1.18-2.38-2.29-3.59-3.36-.49.41-1,.83-1.42,1.27l-4-2.46a4.38,4.38,0,0,0-6,1.45l-4,6.54a4.37,4.37,0,0,0,1.46,6l4,2.47a31.31,31.31,0,0,0-1.29,9.32l-4.56,1.28a4.37,4.37,0,0,0-3,5.39l2.06,7.39a4.37,4.37,0,0,0,5.39,3l4.56-1.27a31.9,31.9,0,0,0,4.33,5.74l-2.46,4a4.38,4.38,0,0,0,1.45,6l6.54,4a4.38,4.38,0,0,0,6-1.45l2.47-4A31.14,31.14,0,0,0,59,208.91a50.55,50.55,0,0,0,1.8-15.29A16.41,16.41,0,0,1,52.28,191.23Z" fill="#489aff"/>
            <g>
              <g>
                <rect x="56.79" y="100.26" width="154.86" height="110.03" rx="6.93" transform="translate(268.43 310.54) rotate(-180)" fill="#e3eaff"/>
                <rect x="58.83" y="101.7" width="150.78" height="107.13" rx="5.49" transform="translate(268.43 310.54) rotate(-180)" fill="#6db8ff"/>
                <rect x="65.35" y="106.74" width="137.74" height="92.64" rx="3.38" transform="translate(268.43 306.13) rotate(-180)" fill="#2f6dff"/>
                <path d="M215.41,204.58a5.77,5.77,0,0,1-5.09,8.56H58.11a5.81,5.81,0,0,1-5.8-5.81,5.69,5.69,0,0,1,.72-2.75Z" fill="#e3eaff"/>
              </g>
              <path d="M215.41,210.08a5.8,5.8,0,0,1-5.09,3.06H58.11A5.79,5.79,0,0,1,53,210.08Z" fill="#c8d6f2"/>
            </g>
            <path d="M63.72,100.26H167.05v69.05a2.77,2.77,0,0,1-2.76,2.77H56.79v-64.9A6.92,6.92,0,0,1,63.72,100.26Z" fill="#424261" opacity="0.2" style="mix-blend-mode: multiply"/>
            <rect x="42.28" y="92.24" width="120.97" height="76.73" rx="2.76" transform="translate(205.53 261.21) rotate(-180)" fill="#e3eaff" opacity="0.21"/>
            <rect x="37.44" y="87.05" width="120.97" height="76.73" rx="2.76" transform="translate(195.85 250.84) rotate(-180)" fill="#f9fbfc"/>
            <rect x="179.02" y="123" width="15.73" height="16.42" rx="1.73" transform="translate(373.76 262.41) rotate(-180)" fill="#424261" opacity="0.2" style="mix-blend-mode: multiply"/>
            <rect x="179.92" y="146.85" width="15.73" height="16.42" rx="1.73" transform="translate(375.58 310.11) rotate(-180)" fill="#6db8ff"/>
            <rect x="179.92" y="170.18" width="15.73" height="16.42" rx="1.73" transform="translate(375.58 356.77) rotate(-180)" fill="#6db8ff"/>
            <g>
              <path d="M184.35,176.58a3.74,3.74,0,0,1,7.48,0s.52,4-3.74,7.1C183.83,180.54,184.35,176.58,184.35,176.58Z" fill="#9570ee"/>
              <path d="M187.87,179.27a2.7,2.7,0,1,0-2.48-2.47A2.7,2.7,0,0,0,187.87,179.27Z" fill="#f9fbfc"/>
            </g>
            <g>
              <g>
                <g>
                  <path d="M183,154.84a5.18,5.18,0,1,0,5.17-5.17A5.18,5.18,0,0,0,183,154.84Z" fill="#9570ee"/>
                  <path d="M184,154.84a4.17,4.17,0,1,0,4.17-4.17A4.17,4.17,0,0,0,184,154.84Z" fill="#f9fbfc"/>
                  <path d="M188.16,150.67a4.16,4.16,0,0,0-4,3,.18.18,0,0,1-.16.12h0a.16.16,0,0,1-.16-.21,4.5,4.5,0,0,1,8.63,0,.17.17,0,0,1-.16.21h0a.17.17,0,0,1-.16-.12A4.18,4.18,0,0,0,188.16,150.67Z" fill="#bb87ee"/>
                  <path d="M183.54,155a.49.49,0,0,1,.49.43,4.17,4.17,0,0,0,8.27,0,.49.49,0,0,1,.49-.43h0a.5.5,0,0,1,.5.56,5.17,5.17,0,0,1-10.25,0,.5.5,0,0,1,.5-.56Z" fill="#7f57ee"/>
                  <path d="M184,154.84a4.17,4.17,0,1,0,4.17-4.17A4.17,4.17,0,0,0,184,154.84Z" fill="#f9fbfc"/>
                  <path d="M184.1,156.18a.19.19,0,0,1,.16.11,4.16,4.16,0,0,0,7.81,0,.19.19,0,0,1,.16-.11h0a.18.18,0,0,1,.16.23,4.51,4.51,0,0,1-8.45,0,.17.17,0,0,1,.16-.23Z" fill="#9570ee"/>
                </g>
                <path d="M188.17,155.21h0a.21.21,0,0,0,.21-.21v-2.93a.2.2,0,0,0-.21-.2h0a.2.2,0,0,0-.2.2V155A.2.2,0,0,0,188.17,155.21Z" fill="#9570ee"/>
                <path d="M188.32,154.89h0a.2.2,0,0,0-.28,0l-1.81,1.53a.2.2,0,0,0,0,.28h0a.2.2,0,0,0,.28,0l1.82-1.53A.22.22,0,0,0,188.32,154.89Z" fill="#9570ee"/>
              </g>
              <g>
                <rect x="188.13" y="150.95" width="0.15" height="0.4" transform="translate(376.41 302.3) rotate(-180)" fill="#ced6ff"/>
                <rect x="188.13" y="158.26" width="0.15" height="0.4" transform="translate(376.41 316.92) rotate(-180)" fill="#ced6ff"/>
              </g>
              <g>
                <rect x="191.78" y="154.6" width="0.15" height="0.4" transform="translate(37.05 346.66) rotate(-90)" fill="#ced6ff"/>
                <rect x="184.48" y="154.6" width="0.15" height="0.4" transform="translate(29.75 339.36) rotate(-90)" fill="#ced6ff"/>
              </g>
              <g>
                <rect x="190.71" y="152.02" width="0.15" height="0.4" transform="translate(218.16 394.75) rotate(-135.02)" fill="#ced6ff"/>
                <rect x="185.55" y="157.19" width="0.15" height="0.4" transform="translate(205.59 399.93) rotate(-135)" fill="#ced6ff"/>
              </g>
              <g>
                <rect x="190.71" y="157.19" width="0.15" height="0.4" transform="translate(-55.41 181.02) rotate(-45)" fill="#ced6ff"/>
                <rect x="185.55" y="152.02" width="0.15" height="0.4" transform="translate(-53.28 175.73) rotate(-44.97)" fill="#ced6ff"/>
              </g>
            </g>
            <g>
              <rect x="179.92" y="122.48" width="15.73" height="16.42" rx="1.73" transform="translate(375.58 261.38) rotate(-180)" fill="#6db8ff"/>
              <g>
                <polyline points="196.41 137.21 195.11 136.31 194.53 134.17 195.18 134.04 195.56 134.81 195.18 131.12 195.82 131.25 196.47 134.81 197.25 136.5 196.54 136.95" fill="#f7d3a9"/>
                <polygon points="188.74 141.06 188.56 139.5 186.66 137.6 186.23 138.21 186.92 138.98 183.29 138.12 183.29 138.9 186.66 140.19 187.36 141.4 188.74 141.06" fill="#f7d3a9"/>
                <g>
                  <g>
                    <polygon points="212.4 179.51 205.33 214.09 199.98 213.51 203.61 212.18 202.27 211.79 204.18 179.51 212.4 179.51" fill="#544db8"/>
                    <path d="M201.13,178.94s-9,8.4-7.64,18.53c1.52,8,4.77,11.08,4.77,11.08l1-.2-1.48,3.92,4.29-4.58s-5.3-7.31-2-14.9a20.44,20.44,0,0,1,10.46-10.32s-6.16-5.59-6.59-5.45A30.84,30.84,0,0,0,201.13,178.94Z" fill="#544db8"/>
                    <g>
                      <path d="M197.31,135.9s14.75,17.91,16.47,21.5c0,0,.72,1.29.72,5s-1.29,17.48-1.29,17.48l-15,.86s4.87-16.76,5-17.19a10.2,10.2,0,0,1,4.87-3.58l-12.61-22.79Z" fill="#ff8b40"/>
                      <g>
                        <path d="M206.65,158.25s-.63,1.85-1,3c0,0,3.07-.07,4.15-1.49L208.68,157Z" fill="#f7d3a9"/>
                        <path d="M204.32,152.43s-.91,5.29,0,6.49,4-.84,5.31-2.76,1.56-6.25-.64-6.61A4.07,4.07,0,0,0,204.32,152.43Z" fill="#f7d3a9"/>
                      </g>
                      <path d="M205.71,162.22s-11.83-7.44-12.78-9-3.63-12.88-3.63-12.88L187,141s1.34,12.69,1.72,14,12,13.74,14.69,13.74S207.05,165.28,205.71,162.22Z" fill="#ff8b40"/>
                    </g>
                  </g>
                  <path d="M210.68,149.78a4.47,4.47,0,0,0-4.32-1.64c-2.76.52-3.45-.08-3.45-.08s.6,3,2.5,3.71,2.42.52,2.42.52a6.57,6.57,0,0,0-1.29,1.81c-.26.78.86-.95,1.29-.34s0,1.9-.86,1.81-.35.61,0,1.3.86,1.55,1.38,1.3a6.15,6.15,0,0,0,3-3.46C212.07,152.55,212.24,150.48,210.68,149.78Z" fill="#544db8"/>
                </g>
              </g>
            </g>
            <rect x="114.69" y="95.09" width="36.29" height="61.17" rx="1.3" transform="translate(265.67 251.35) rotate(-180)" fill="#e3eaff"/>
            <rect x="121.26" y="100.02" width="23.5" height="5.18" rx="1.04" transform="translate(266.01 205.22) rotate(-180)" fill="#6db8ff"/>
            <path d="M136.89,134h4.67a2,2,0,0,0,2-2h0a2,2,0,0,0-2-2h-4.67a2,2,0,0,0-2,2h0A2,2,0,0,0,136.89,134Z" fill="#6db8ff"/>
            <path d="M123.42,134h4.66a2,2,0,0,0,2-2h0a2,2,0,0,0-2-2h-4.66a2,2,0,0,0-2,2h0A2,2,0,0,0,123.42,134Z" fill="#9570ee"/>
            <rect x="120.05" y="110.38" width="25.23" height="3.97" transform="translate(265.32 224.74) rotate(-180)" fill="#f9fbfc"/>
            <rect x="120.05" y="117.12" width="25.23" height="3.97" transform="translate(265.32 238.22) rotate(-180)" fill="#f9fbfc"/>
            <rect x="125.32" y="123.6" width="14.52" height="0.91" transform="translate(265.15 248.11) rotate(-180)" fill="#cdd4ff"/>
            <path d="M39.91,145H85.27a5.06,5.06,0,0,0,5-5.06h0a5,5,0,0,0-5-5H39.91a5.06,5.06,0,0,0-5.06,5h0A5.07,5.07,0,0,0,39.91,145Z" fill="#9570ee"/>
            <g>
              <path d="M79.18,102.09h28.25a4.15,4.15,0,0,0,4.15-4.15h0a4.15,4.15,0,0,0-4.15-4.15H79.18A4.15,4.15,0,0,0,75,97.94h0A4.15,4.15,0,0,0,79.18,102.09Z" fill="#e3eaff"/>
              <path d="M100.69,97.94a1.3,1.3,0,1,0,1.3-1.29A1.3,1.3,0,0,0,100.69,97.94Z" fill="#ffc240"/>
              <path d="M91.79,97.94a1.3,1.3,0,1,0,1.3-1.29A1.3,1.3,0,0,0,91.79,97.94Z" fill="#90c240"/>
              <path d="M83.58,97.94a1.3,1.3,0,1,0,1.3-1.29A1.3,1.3,0,0,0,83.58,97.94Z" fill="#eb4f24"/>
            </g>
            <g>
              <circle cx="187.97" cy="131.7" r="3.16" fill="#fff"/>
              <g>
                <path d="M183.12,129.46V134a1.58,1.58,0,0,0,1.58,1.57h6.44a1.58,1.58,0,0,0,1.58-1.57v-4.58a1.57,1.57,0,0,0-1.58-1.57h-.55l-.8-1.13a.34.34,0,0,0-.28-.14h-3.18a.34.34,0,0,0-.28.14l-.8,1.13h-.55A1.57,1.57,0,0,0,183.12,129.46Zm2.48,2.25a2.32,2.32,0,1,1,2.32,2.32A2.32,2.32,0,0,1,185.6,131.71Z" fill="#9570ee"/>
                <circle cx="187.92" cy="131.71" r="1.53" fill="#6db8ff"/>
              </g>
            </g>
            <g>
              <rect x="73.03" y="110.58" width="27.81" height="18.27" rx="2.04" transform="translate(173.87 239.43) rotate(-180)" fill="#e3eaff"/>
              <path d="M86.91,119.57h0a.7.7,0,0,0,.35-.09l10.72-6a.73.73,0,1,0-.71-1.28L86.93,118l-10.39-5.77a.72.72,0,0,0-1,.28.74.74,0,0,0,.28,1l10.72,6A.74.74,0,0,0,86.91,119.57Z" fill="#fd4940"/>
            </g>
            <rect x="32.26" y="82.39" width="34.48" height="44.58" rx="1.81" transform="translate(99 209.36) rotate(-180)" fill="#544db8"/>
            <g>
              <path d="M59,88.37h2.3c.12,0,.22-.2.22-.45h0c0-.24-.1-.44-.22-.44H59c-.12,0-.22.2-.22.44h0C58.81,88.17,58.91,88.37,59,88.37Z" fill="#0cf"/>
              <path d="M44.81,88.37H58c.12,0,.22-.2.22-.45h0c0-.24-.1-.44-.22-.44H44.81c-.12,0-.22.2-.22.44h0C44.59,88.17,44.69,88.37,44.81,88.37Z" fill="#0cf"/>
              <path d="M53.76,90.2H58c.12,0,.22-.2.22-.44h0c0-.25-.1-.45-.22-.45H53.76c-.12,0-.22.2-.22.45h0C53.54,90,53.64,90.2,53.76,90.2Z" fill="#ff56a9"/>
              <path d="M46.87,90.2h6c.12,0,.22-.2.22-.44h0c0-.25-.1-.45-.22-.45h-6c-.13,0-.22.2-.22.45h0C46.65,90,46.74,90.2,46.87,90.2Z" fill="#e3eaff"/>
              <path d="M44.81,99.14H58c.12,0,.22-.2.22-.44h0c0-.25-.1-.45-.22-.45H44.81c-.12,0-.22.2-.22.45h0C44.59,98.94,44.69,99.14,44.81,99.14Z" fill="#e3eaff"/>
              <path d="M59,101h2.3c.12,0,.22-.2.22-.45h0c0-.24-.1-.44-.22-.44H59c-.12,0-.22.2-.22.44h0C58.81,100.78,58.91,101,59,101Z" fill="#0cf"/>
              <path d="M53.76,101H58c.12,0,.22-.2.22-.45h0c0-.24-.1-.44-.22-.44H53.76c-.12,0-.22.2-.22.44h0C53.54,100.78,53.64,101,53.76,101Z" fill="#e3eaff"/>
              <path d="M46.87,101h6c.12,0,.22-.2.22-.45h0c0-.24-.1-.44-.22-.44h-6c-.13,0-.22.2-.22.44h0C46.65,100.78,46.74,101,46.87,101Z" fill="#ff56a9"/>
              <path d="M41.55,92H58c.12,0,.22-.2.22-.45h0c0-.24-.1-.44-.22-.44H41.55c-.12,0-.22.2-.22.44h0C41.33,91.84,41.43,92,41.55,92Z" fill="#ff56a9"/>
              <rect x="44.76" y="92.98" width="4.29" height="0.89" rx="0.23" transform="translate(93.8 186.86) rotate(-180)" fill="#0cf"/>
              <path d="M52.5,93.87H58c.12,0,.22-.2.22-.44h0c0-.25-.1-.45-.22-.45H52.5c-.12,0-.22.2-.22.45h0C52.28,93.67,52.38,93.87,52.5,93.87Z" fill="#e3eaff"/>
              <path d="M49.61,93.87h2.16c.12,0,.22-.2.22-.44h0c0-.25-.1-.45-.22-.45H49.61c-.13,0-.23.2-.23.45h0C49.38,93.67,49.48,93.87,49.61,93.87Z" fill="#0cf"/>
              <path d="M59,95.65h2.3c.12,0,.22-.2.22-.45h0c0-.24-.1-.44-.22-.44H59c-.12,0-.22.2-.22.44h0C58.81,95.45,58.91,95.65,59,95.65Z" fill="#e3eaff"/>
              <path d="M41.55,95.65H58c.12,0,.22-.2.22-.45h0c0-.24-.1-.44-.22-.44H41.55c-.12,0-.22.2-.22.44h0C41.33,95.45,41.43,95.65,41.55,95.65Z" fill="#e3eaff"/>
              <path d="M59,102.68h2.3c.12,0,.22-.2.22-.45h0c0-.24-.1-.44-.22-.44H59c-.12,0-.22.2-.22.44h0C58.81,102.48,58.91,102.68,59,102.68Z" fill="#e3eaff"/>
              <rect x="43.11" y="101.79" width="5.93" height="0.89" rx="0.28" transform="translate(92.15 204.46) rotate(-180)" fill="#e3eaff"/>
              <path d="M52.5,102.68H58c.12,0,.22-.2.22-.45h0c0-.24-.1-.44-.22-.44H52.5c-.12,0-.22.2-.22.44h0C52.28,102.48,52.38,102.68,52.5,102.68Z" fill="#e3eaff"/>
              <path d="M49.61,102.68h2.16c.12,0,.22-.2.22-.45h0c0-.24-.1-.44-.22-.44H49.61c-.13,0-.23.2-.23.44h0C49.38,102.48,49.48,102.68,49.61,102.68Z" fill="#e3eaff"/>
              <path d="M59,104.45h2.3c.12,0,.22-.2.22-.44h0c0-.25-.1-.45-.22-.45H59c-.12,0-.22.2-.22.45h0C58.81,104.25,58.91,104.45,59,104.45Z" fill="#ffc359"/>
              <path d="M55.11,104.45H58c.12,0,.22-.2.22-.44h0c0-.25-.1-.45-.22-.45H55.11c-.12,0-.22.2-.22.45h0C54.89,104.25,55,104.45,55.11,104.45Z" fill="#0cf"/>
              <path d="M61.33,97.48c.12,0,.22-.2.22-.44h0c0-.25-.1-.45-.22-.45H59c-.12,0-.22.2-.22.45h0c0,.24.1.44.22.44" fill="#0cf"/>
              <rect x="42.34" y="96.59" width="6.7" height="0.89" rx="0.29" transform="translate(91.38 194.08) rotate(-180)" fill="#e3eaff"/>
              <path d="M52.5,97.48H58c.12,0,.22-.2.22-.44h0c0-.25-.1-.45-.22-.45H52.5c-.12,0-.22.2-.22.45h0C52.28,97.28,52.38,97.48,52.5,97.48Z" fill="#ffc359"/>
              <path d="M49.61,97.48h2.16c.12,0,.22-.2.22-.44h0c0-.25-.1-.45-.22-.45H49.61c-.13,0-.23.2-.23.45h0C49.38,97.28,49.48,97.48,49.61,97.48Z" fill="#ffc359"/>
              <path d="M44.81,106.34H58c.12,0,.22-.2.22-.45h0c0-.24-.1-.44-.22-.44H44.81c-.12,0-.22.2-.22.44h0C44.59,106.14,44.69,106.34,44.81,106.34Z" fill="#e3eaff"/>
              <path d="M53.76,108.17H58c.12,0,.22-.2.22-.44h0c0-.25-.1-.45-.22-.45H53.76c-.12,0-.22.2-.22.45h0C53.54,108,53.64,108.17,53.76,108.17Z" fill="#e3eaff"/>
              <path d="M46.87,108.17h6c.12,0,.22-.2.22-.44h0c0-.25-.1-.45-.22-.45h-6c-.13,0-.22.2-.22.45h0C46.65,108,46.74,108.17,46.87,108.17Z" fill="#e3eaff"/>
              <path d="M44.81,117.11H58c.12,0,.22-.2.22-.44h0c0-.25-.1-.45-.22-.45H44.81c-.12,0-.22.2-.22.45h0C44.59,116.91,44.69,117.11,44.81,117.11Z" fill="#e3eaff"/>
              <path d="M59,119h2.3c.12,0,.22-.2.22-.45h0c0-.24-.1-.44-.22-.44H59c-.12,0-.22.2-.22.44h0C58.81,118.75,58.91,119,59,119Z" fill="#ff56a9"/>
              <path d="M53.76,119H58c.12,0,.22-.2.22-.45h0c0-.24-.1-.44-.22-.44H53.76c-.12,0-.22.2-.22.44h0C53.54,118.75,53.64,119,53.76,119Z" fill="#0cf"/>
              <path d="M46.87,119h6c.12,0,.22-.2.22-.45h0c0-.24-.1-.44-.22-.44h-6c-.13,0-.22.2-.22.44h0C46.65,118.75,46.74,119,46.87,119Z" fill="#e3eaff"/>
              <path d="M59,110h2.3c.12,0,.22-.2.22-.45h0c0-.24-.1-.44-.22-.44H59c-.12,0-.22.2-.22.44h0C58.81,109.81,58.91,110,59,110Z" fill="#ff56a9"/>
              <rect x="45.95" y="109.12" width="12.22" height="0.89" rx="0.27" transform="translate(104.13 219.13) rotate(-180)" fill="#ff56a9"/>
              <path d="M59,111.84h2.3c.12,0,.22-.19.22-.44h0c0-.24-.1-.44-.22-.44H59c-.12,0-.22.2-.22.44h0C58.81,111.65,58.91,111.84,59,111.84Z" fill="#e3eaff"/>
              <path d="M52.5,111.84H58c.12,0,.22-.19.22-.44h0c0-.24-.1-.44-.22-.44H52.5c-.12,0-.22.2-.22.44h0C52.28,111.65,52.38,111.84,52.5,111.84Z" fill="#e3eaff"/>
              <path d="M49.61,111.84h2.16c.12,0,.22-.19.22-.44h0c0-.24-.1-.44-.22-.44H49.61c-.13,0-.23.2-.23.44h0C49.38,111.65,49.48,111.84,49.61,111.84Z" fill="#e3eaff"/>
              <path d="M59,113.62h2.3c.12,0,.22-.2.22-.44h0c0-.25-.1-.45-.22-.45H59c-.12,0-.22.2-.22.45h0C58.81,113.42,58.91,113.62,59,113.62Z" fill="#e3eaff"/>
              <rect x="42.79" y="112.73" width="15.39" height="0.89" rx="0.3" transform="translate(100.96 226.35) rotate(-180)" fill="#e3eaff"/>
              <path d="M59,120.65h2.3c.12,0,.22-.2.22-.45h0c0-.24-.1-.44-.22-.44H59c-.12,0-.22.2-.22.44h0C58.81,120.45,58.91,120.65,59,120.65Z" fill="#e3eaff"/>
              <path d="M41.57,120.65h7.25c.12,0,.22-.2.22-.45h0c0-.24-.1-.44-.22-.44H41.57c-.12,0-.22.2-.22.44h0C41.35,120.45,41.45,120.65,41.57,120.65Z" fill="#e3eaff"/>
              <path d="M52.5,120.65H58c.12,0,.22-.2.22-.45h0c0-.24-.1-.44-.22-.44H52.5c-.12,0-.22.2-.22.44h0C52.28,120.45,52.38,120.65,52.5,120.65Z" fill="#e3eaff"/>
              <path d="M49.61,120.65h2.16c.12,0,.22-.2.22-.45h0c0-.24-.1-.44-.22-.44H49.61c-.13,0-.23.2-.23.44h0C49.38,120.45,49.48,120.65,49.61,120.65Z" fill="#e3eaff"/>
              <rect x="48.01" y="121.53" width="10.16" height="0.89" rx="0.24" transform="translate(106.18 243.96) rotate(-180)" fill="#ffc359"/>
              <rect x="41.95" y="114.57" width="7.09" height="0.89" rx="0.3" transform="translate(90.99 230.02) rotate(-180)" fill="#ff56a9"/>
              <path d="M52.5,115.46H58c.12,0,.22-.2.22-.45h0c0-.24-.1-.44-.22-.44H52.5c-.12,0-.22.2-.22.44h0C52.28,115.26,52.38,115.46,52.5,115.46Z" fill="#ffc359"/>
              <path d="M49.61,115.46h2.16c.12,0,.22-.2.22-.45h0c0-.24-.1-.44-.22-.44H49.61c-.13,0-.23.2-.23.44h0C49.38,115.26,49.48,115.46,49.61,115.46Z" fill="#ffc359"/>
            </g>
            <g>
              <circle cx="35.04" cy="83.31" r="7.26" fill="#ff4dd1"/>
              <g>
                <path d="M35.57,81.56l4.12,1.56v1.13l-4.12,1.56V84.73l2.88-1-2.88-1.05Z" fill="#f9fbfc"/>
                <path d="M34.62,82.63l-2.88,1.05,2.88,1v1.08L30.5,84.25V83.12l4.12-1.56Z" fill="#f9fbfc"/>
              </g>
            </g>
            <g>
              <circle cx="83.05" cy="205.69" r="7.87" transform="translate(-133.8 158.98) rotate(-55.86)" fill="#ffc240"/>
              <path d="M79.37,203.29a3.22,3.22,0,0,1,1.36-1.3,4.21,4.21,0,0,1,2-.46,4.63,4.63,0,0,1,2.35.58,4.05,4.05,0,0,1,1.57,1.61,4.72,4.72,0,0,1,.56,2.28,3.69,3.69,0,0,1-1.09,2.83,4.2,4.2,0,0,1-3,1,6.07,6.07,0,0,1-2.42-.46v-1a8.26,8.26,0,0,0,1.27.35,6.57,6.57,0,0,0,1.19.12A2.64,2.64,0,0,0,86.08,206a4,4,0,0,0-.41-1.84,2.91,2.91,0,0,0-1.16-1.22,3.64,3.64,0,0,0-1.79-.42,2.94,2.94,0,0,0-1.41.33,2.23,2.23,0,0,0-1,1,3,3,0,0,0-.34,1.45,3.3,3.3,0,0,0,.19,1.24c.13.32.3.48.52.48s.39-.24.39-.71L81,203.75a7.19,7.19,0,0,1,.87-.2,6.89,6.89,0,0,1,1-.08,2.45,2.45,0,0,1,1.78.66,2.26,2.26,0,0,1,.69,1.73,2.08,2.08,0,0,1-.52,1.48,1.88,1.88,0,0,1-1.42.54,1.75,1.75,0,0,1-1.4-.65h-.09a1,1,0,0,1-.41.47,1.27,1.27,0,0,1-.67.18,1.51,1.51,0,0,1-1-.34,2.12,2.12,0,0,1-.66-1,3.59,3.59,0,0,1-.24-1.34A3.86,3.86,0,0,1,79.37,203.29Zm4.38,1.5a1.25,1.25,0,0,0-1-.39,2.56,2.56,0,0,0-.58,0l.06,1.13a2.13,2.13,0,0,0,.29,1,.83.83,0,0,0,.7.32c.58,0,.87-.36.87-1.07A1.57,1.57,0,0,0,83.75,204.79Z" fill="#fff"/>
            </g>
            <g>
              <path d="M122.61,69.49H172A7.26,7.26,0,1,1,172,84h-3.63l-3.51,3.51L161.35,84H122.61a7.26,7.26,0,1,1,0-14.52Z" fill="#9570ee"/>
              <path d="M136.75,79.07h32.5a.82.82,0,0,0,.81-.82h0a.81.81,0,0,0-.81-.81h-32.5a.82.82,0,0,0-.82.81h0A.82.82,0,0,0,136.75,79.07Z" fill="#fff"/>
              <path d="M146.9,74.6h22.35a.82.82,0,0,0,.81-.82h0a.81.81,0,0,0-.81-.81H146.9a.81.81,0,0,0-.81.81h0A.82.82,0,0,0,146.9,74.6Z" fill="#fff"/>
            </g>
            <g>
              <path d="M55.1,161.53s.61,1.79.94,2.87c0,0-3-.06-4-1.44l1.1-2.64Z" fill="#f7d3a9"/>
              <g>
                <polygon points="55.55 210.98 55.3 212.1 53.66 212.2 54.01 210.81 55.55 210.98" fill="#f79a74"/>
                <path d="M55.3,212.1S58,213.53,58,213.62s-4.63-.39-4.63-.39l.28-1Z" fill="#544db8"/>
              </g>
              <g>
                <polygon points="41.73 208.7 41.09 209.66 39.53 209.16 40.35 208 41.73 208.7" fill="#f79a74"/>
                <path d="M41.09,209.66s2,2.32,2,2.4-4.18-2-4.18-2l.63-.87Z" fill="#544db8"/>
              </g>
              <path d="M58.59,181.16s4.7,15.33-2.77,30.12H53.61S58,194.56,52.51,181Z" fill="#ffc240"/>
              <path d="M54.51,181.7s-.73,16-12.72,27.44l-2.08-.74s9.78-14.26,9.12-28.87Z" fill="#ffc240"/>
              <g>
                <path d="M56.66,145.59v-.94a.49.49,0,0,1,0-.12l.18-.68.54.14.55-.51a.47.47,0,0,1,.74.14,5.06,5.06,0,0,1,.42,1.18.44.44,0,0,1-.12.39l-.84.92a.46.46,0,0,1-.47.13L57,146A.47.47,0,0,1,56.66,145.59Z" fill="#f79a74"/>
                <path d="M48.56,166.33s6.13-6.56,6.53-9,1.3-11.6,1.3-11.6l1.89.36s.65,13.08.07,14.59-4.25,9.18-6.65,9.89S47.61,168.89,48.56,166.33Z" fill="#ff4f72"/>
                <path d="M57.07,155.5s1.38,4.6.51,5.76-4.1.11-5.35-1.75-1.51-6,.62-6.37S56.57,153.65,57.07,155.5Z" fill="#f79a74"/>
                <path d="M48.78,182.4s-1.24-13.26-1.24-16.86v-.47A3.55,3.55,0,0,1,51.68,163a29.61,29.61,0,0,1,4.49,1.48h0a8.74,8.74,0,0,1,2.27,2.22,21.38,21.38,0,0,1,.41,15.2Z" fill="#ff4f72"/>
                <path d="M66.34,146.27l.16-.93a.56.56,0,0,1,0-.12l.29-.63.51.23.63-.4a.46.46,0,0,1,.7.26,5.11,5.11,0,0,1,.21,1.24.47.47,0,0,1-.18.36l-1,.76a.48.48,0,0,1-.49,0l-.63-.31A.46.46,0,0,1,66.34,146.27Z" fill="#f79a74"/>
                <path d="M54.72,165.27s7.18-5.39,8-7.74,3.32-11.19,3.32-11.19l1.8.69s-1.66,13-2.49,14.37-5.8,8.29-8.29,8.56S53.34,167.62,54.72,165.27Z" fill="#ff4f72"/>
                <path d="M52,153.11s3.68-1.57,5.43,1.66c.92,2-2,.09-2.58.73s.74,1.94.37,2.4-1-.83-1.38-.09.55.83,1.2,1.65-.56,2,.36,2.77,3.5,1.29,1.94,5.25,2.58,5,.83,10.41-13.63,8.47-15.85,2,5.16-8,4.7-10.87-2.12-3.59.09-6.44,3.6-4.52,3-6.36A2.42,2.42,0,0,1,52,153.11Z" fill="#544db8"/>
              </g>
            </g>
            <path d="M34,138.76a7.92,7.92,0,1,0,7.92-7.92A7.92,7.92,0,0,0,34,138.76Zm10.95.35a1,1,0,1,1,1-1A1,1,0,0,1,44.94,139.11Zm-5.53,1.79h5a2.52,2.52,0,0,1-5,0Zm-1.51-2.76a1,1,0,0,1,1.94,0,1,1,0,0,1-1.94,0Z" fill="#fec800"/>
            <polygon points="159.56 195.09 160.03 194.16 147.47 187.89 131.63 188.15 114.43 181.67 101.3 181.67 87.27 176.99 87.15 177 75.91 178.28 69.57 174.99 69.09 175.91 75.71 179.35 75.87 179.33 87.16 178.05 101.21 182.7 114.33 182.7 131.45 189.19 131.55 189.19 147.23 188.93 159.56 195.09" fill="#f9fbfc"/>
            <g>
              <path d="M113.48,170.22S101,190.37,102.59,204.39l-8.46.17,3.62-2.1-1-.17s3.11-21.73,6-29.44c3.07-8.08,4-5.09,4-5.09Z" fill="#544db8"/>
              <path d="M118,169s-.69,14,.35,19.35,4.15,15.9,4.15,15.9l-8,.17,2.08-1.47,1.33-.77s-5.66-15.21-6.18-22.47a96.09,96.09,0,0,0-1.38-11.41Z" fill="#544db8"/>
              <g>
                <polyline points="101.71 127.53 100.41 126.63 99.83 124.49 100.48 124.36 100.86 125.14 100.48 121.44 101.12 121.57 101.77 125.14 102.55 126.82 101.84 127.28" fill="#f7d3a9"/>
                <polygon points="94.04 131.38 93.87 129.82 91.97 127.92 91.53 128.53 92.22 129.31 88.59 128.44 88.59 129.22 91.97 130.52 92.66 131.73 94.04 131.38" fill="#f7d3a9"/>
                <g>
                  <path d="M102.61,126.23s14.75,17.91,16.47,21.49c0,0,.72,1.29.72,5s-1.29,17.48-1.29,17.48l-15,.86s4.87-16.76,5-17.19a10.2,10.2,0,0,1,4.87-3.58l-12.61-22.78Z" fill="#6db8ff"/>
                  <g>
                    <path d="M112,148.57s-.63,1.86-1,3c0,0,3.07-.06,4.15-1.49L114,147.31Z" fill="#f7d3a9"/>
                    <path d="M109.62,142.76s-.91,5.28,0,6.49,4-.84,5.32-2.77,1.55-6.25-.65-6.61A4.07,4.07,0,0,0,109.62,142.76Z" fill="#f7d3a9"/>
                  </g>
                  <path d="M111,152.55s-11.83-7.45-12.78-9S94.6,130.7,94.6,130.7l-2.29.57s1.34,12.69,1.72,14,12,13.74,14.69,13.74S112.35,155.6,111,152.55Z" fill="#6db8ff"/>
                </g>
              </g>
              <path d="M110.46,141.58s-.61-2.08.69-3.11A4.17,4.17,0,0,1,115,138c0,.6-1.39,1-1,1.29s2.16,0,2.59,1.82-.17,2.16-.17,2.16a2.14,2.14,0,0,1-.18,2.68c-1.12,1.55-3.66,2.83-4.29,2.67s-.28-2.59-.28-2.59,1.46-.17,1.55-1.12-.69-1-1-.69-.43,1.12-.69,1,.09-2,.09-2A3.65,3.65,0,0,1,110.46,141.58Z" fill="#544db8"/>
            </g>
            <g>
              <path d="M103.49,194.51l8.89,2.44a4.62,4.62,0,0,1,3.22,5.66l-1.68,6.13a4.62,4.62,0,0,1-5.66,3.22l-2.67-.73-2.62,2.6-.93-3.57-2.67-.73a4.62,4.62,0,0,1-3.22-5.66l1.68-6.13A4.62,4.62,0,0,1,103.49,194.51Z" fill="#9570ee"/>
              <g>
                <path d="M109.37,204.56a1,1,0,1,0,1.25-.72A1,1,0,0,0,109.37,204.56Z" fill="#fff"/>
                <path d="M104.89,203.33a1,1,0,1,0,1.26-.72A1,1,0,0,0,104.89,203.33Z" fill="#fff"/>
                <path d="M100.41,202.1a1,1,0,0,0,.72,1.25,1,1,0,1,0-.72-1.25Z" fill="#fff"/>
              </g>
            </g>
            <circle cx="147.44" cy="188.15" r="1.64" fill="#ffc240"/>
            <circle cx="87.13" cy="177.61" r="1.64" fill="#ff4f72"/>
          </g>
        </g>
      </g>
    </g>
  </g>
</svg>
