<svg xmlns="http://www.w3.org/2000/svg" viewBox="0 0 281.3 94.1">
  <title>Asset 1</title>
  <g id="Layer_2" data-name="Layer 2">
    <g id="Layer_1-2" data-name="Layer 1">
      <g id="Layer_1-2-2" data-name="Layer 1-2">
        <g>
          <path d="M61.35,59.86c3-12.4.6-25.1,1.3-37.6.1-2.3.1-5.1-3.6-4.1-14.5,3.9-30.2,5.3-40.6,18.3-4.3-3.8-12.4-5.7-7.1-14.3,9.1-9.3,21.7-10.8,33.2-14.6,8.8-2.9,18.1-4.8,27.2-7,2.4-.6,5.7-1.7,5.3,2.9-1.8,19.8,1.2,39.8-1.4,59.6-.2,1.7-1.2,3.2-1.8,4.9C67.35,68.56,63.35,65.66,61.35,59.86Z" fill="#4da541"/>
          <path d="M11.25,22.16c-3.4,7.6,7,8.4,7.1,14.3-1.4,5.9-3.5,11.8-.8,18.4,6.1-3.4,12.1-6.7,18.1-10.1.6.5,1.1,1,1.7,1.5l-19.2,23.1c-9-.4-13.1-7.2-17.2-13.7C-1.55,42.76.55,31.06,11.25,22.16Z" fill="#4da541"/>
          <path d="M61.35,59.86,73.65,68c-4.4,11.7-13.9,16.4-25.4,18.2a61.82,61.82,0,0,1-7.6-5.9c-5-5.1-4.7-6.4,2.4-9.1C50.55,69.66,57,66.36,61.35,59.86Z" fill="#4da541"/>
          <path d="M43.05,71.16c-4.2,2.2-6,4.4-.8,7.8,2.6,1.7,5.6,3.4,6,7.1-8.7,2.8-17.8,3.1-26.8,4C22.35,75.06,24.75,72.86,43.05,71.16Z" fill="#4da541"/>
          <path d="M.85,55.76c5.8,4.5,10.3,10.6,17.2,13.7-4.1,6.7-8.2,13.3-13.5,22C3.15,78.26,2.05,67.06.85,55.76Z" fill="#4da541"/>
        </g>
        <g>
          <path d="M218.85,58.16h.6c3.5,0,5.8,1.9,7.1,5.5l.1,1.4-.1,10.8c-.1,4.4,2.7,7.6,8.1,9.4a32.36,32.36,0,0,0,5.2.6h2.7c4-.8,6.6-2,8-3.6s2.1-4,2.1-7.1c0-1-2.3-1.9-7.1-2.7-3.4-1.3-5.6-3.1-6.7-5.5v-.3L266,67l.3.3-.1,7.9-.3.3h-5.2v1.4c-.1,6.8-3.2,11.7-9.3,15a24.25,24.25,0,0,1-10.3,2.2h-3.7a22,22,0,0,1-14.2-5.2c-3.3-3.6-4.8-7.3-4.8-11l.2-19.3Z" fill="#fcfcfc"/>
          <path d="M278,49.56h.5l.3.3-.1,10.4c0,4.3-1.9,8.2-5.6,11.7a14.41,14.41,0,0,1-9.9,3.8h-3.9l-.3-.3.1-7.7.3-.3h3.4c3.8,0,6.5-1.9,7.9-5.8l.3-3.1v-2.4c0-3.1,1.8-5.3,5.4-6.5Z" fill="#fff"/>
          <path d="M156.75,50h0c3.5,0,5.9,1.7,7.1,5.2l.2,1.4.3,19.8c.1,4.1,2.8,7,8.3,8.5l4.1.3h.8c6.5-.1,10.2-2.6,11.2-7.5l-.3-21.1c0-3.3,1.6-5.6,5.1-6.9l1.8-.3h.4l.4.4.4,27c.1,5-2.2,9.2-6.8,12.6a22.67,22.67,0,0,1-6.9,2.8,22.3,22.3,0,0,1-4.6.6h-3a23.92,23.92,0,0,1-11.5-3.1c-3.1-1.9-5.2-4.8-6.5-8.9l-.4-3.1-.4-27.4Z" fill="#fff"/>
          <path d="M200.45,41.46h0a5.75,5.75,0,0,1,5.8,3.8l.1,1.2.6,30.8-.2.2h-.1a5.36,5.36,0,0,1-5.5-3.5l-.2-1.7-.6-30.6Z" fill="#fff"/>
          <path d="M81.25,57.06h.5c3.4,0,5.8,1.8,7.1,5.3l.2,1.3.1,10.7c0,4.4,2.8,7.4,8.2,9.1a43.16,43.16,0,0,0,5.2.5h2.7c3.9-.8,6.5-2.1,7.8-3.7a11,11,0,0,0,2-7c0-1-2.4-1.8-7.1-2.5-3.3-1.2-5.6-3-6.7-5.4v-.3l26.8-.2.3.3.1,7.8-.3.3h-5.1v1.3c.1,6.7-2.9,11.7-8.9,15a23.61,23.61,0,0,1-10.1,2.4h-3.7a22.12,22.12,0,0,1-14.1-4.9c-3.3-3.5-4.9-7.1-5-10.8l-.2-19.1Z" fill="#fff"/>
          <path d="M140.75,47.46h.5l.3.3.1,10.3c0,4.2-1.8,8.1-5.4,11.6a14.08,14.08,0,0,1-10,3.9h-4l-.3-.3-.1-7.6.3-.3h3.4c3.9,0,6.5-2,8-5.9l.2-3v-2.4c0-3.1,1.8-5.2,5.3-6.5Z" fill="#fff"/>
          <g>
            <path d="M270.25,37.26c-.5-1.4-1.6-2.5-2.4-3.8-.1-.2-.3-.5-.7-.2-1.4,1.2-3.2,2.2-3.5,4.1-.8-.1-1.8.1-1.8-1,.4-1.4,1.8-2.3,2.9-3.3a31.6,31.6,0,0,1,2.7-2.2c.2-.2.6-.5.8,0,1.1,2,2.8,3.8,3.8,5.9a1.25,1.25,0,0,1,.1.6A1.39,1.39,0,0,1,270.25,37.26Z" fill="#4da541"/>
            <path d="M262,36.46c.1.9,1.4.4,1.8,1a2.9,2.9,0,0,0,1.1,1.8,23.11,23.11,0,0,0,1.4-2h.3c-.2,1.1-.5,2.2-.7,3.3-1.1.5-2,0-2.9-.4C261.85,39.16,261.25,37.86,262,36.46Z" fill="#4da541"/>
            <path d="M270.25,37.26c.7,0,1.3.1,2,.1.3,1.4-.5,2.4-1.7,3.2a2.89,2.89,0,0,1-1.3-.2c-.9-.2-1-.4-.3-1A3,3,0,0,0,270.25,37.26Z" fill="#4da541"/>
            <path d="M268.85,39.46c-.3.5-.4.8.4.8a1.37,1.37,0,0,1,1.2.4,17,17,0,0,1-2.8,1.9C266.75,41,266.85,40.66,268.85,39.46Z" fill="#4da541"/>
            <path d="M263,40.26a14.16,14.16,0,0,0,2.9.4c0,.9-.1,1.8-.1,2.9C264.75,42.36,263.85,41.36,263,40.26Z" fill="#4da541"/>
          </g>
          <g>
            <path d="M275.15,47.56c1.3-1,1.9-2.3,2.9-3.5.2-.2.4-.5-.1-.6-1.9-.5-3.8-1.4-5.9-.8-.2-.6-1-1.3.3-1.8,1.7-.3,3.2.3,4.8.7,1.2.3,2.4.7,3.6,1,.3.1.8.2.4.6-1.7,1.8-2.8,3.8-4.5,5.5l-.6.3a1.07,1.07,0,0,1-.95-1.18A1.74,1.74,0,0,1,275.15,47.56Z" fill="#4da541"/>
            <path d="M272.35,40.86c-.9.5.2,1.2-.3,1.8s-1.3.9-1.4,1.7c.9.1,1.8.1,2.8.2a.35.35,0,0,0,.1.2c-1.3.3-2.6.7-3.8,1-1-.6-.9-1.5-.9-2.4A3.92,3.92,0,0,1,272.35,40.86Z" fill="#4da541"/>
            <path d="M275.15,47.56c.3.5.5,1,.8,1.5a4.74,4.74,0,0,1-4.2.2,4,4,0,0,1-.4-1c-.2-.8-.1-.9.9-.7A5.7,5.7,0,0,0,275.15,47.56Z" fill="#4da541"/>
            <path d="M272.25,47.46c-.6,0-1,0-.7.7.2.3.4.7.2,1a18.7,18.7,0,0,1-3.3-1.3C269.65,46.56,270.15,46.46,272.25,47.46Z" fill="#4da541"/>
            <path d="M268.65,43.36a11.38,11.38,0,0,0,.9,2.4c-.9.4-1.9.8-3.1,1.2A36.79,36.79,0,0,0,268.65,43.36Z" fill="#4da541"/>
          </g>
          <g>
            <path d="M176.45,55.76c-1.9-.6-3.8-.3-5.7-.5-.3,0-.8-.1-.7.5.5,2.3.6,4.7,2.4,6.4-.6.6-1,1.8-2.2,1-1.3-1.5-1.4-3.4-1.9-5.2a31.42,31.42,0,0,1-.8-4.2c-.1-.4-.2-.9.5-.8,3,.5,6.1.2,9.1.7a1.47,1.47,0,0,1,.7.3A1.7,1.7,0,0,1,176.45,55.76Z" fill="#4da541"/>
            <path d="M170.35,63.06c1.1.6,1.3-1,2.2-1a4.43,4.43,0,0,0,2.8.3c-.5-1-.9-1.9-1.4-2.8l.2-.2c1.1,1,2.2,2.1,3.4,3.1-.1,1.4-1.2,1.9-2.2,2.5C173.35,65.16,171.55,64.76,170.35,63.06Z" fill="#4da541"/>
            <path d="M176.45,55.76c.4-.6.9-1.2,1.3-1.8a4.5,4.5,0,0,1,2.6,4,5,5,0,0,1-1,1.1c-.8.7-1,.7-1.4-.5A3.36,3.36,0,0,0,176.45,55.76Z" fill="#4da541"/>
            <path d="M178.05,58.56c.3.7.6,1,1.2.2a1.93,1.93,0,0,1,1.1-.9,28.32,28.32,0,0,1,.4,4.1C178.45,61.86,178.15,61.46,178.05,58.56Z" fill="#4da541"/>
            <path d="M175.35,65a12.49,12.49,0,0,0,2.2-2.5c1,.7,2,1.4,3.2,2.3A52,52,0,0,0,175.35,65Z" fill="#4da541"/>
          </g>
          <g>
            <path d="M129.85,79.26c-.2,1.6.3,3.2.4,4.8,0,.3.1.7.5.5,1.8-.7,3.8-1.1,4.9-2.9.6.4,1.7.5,1.1,1.7-1,1.3-2.6,1.7-4,2.3-1.1.5-2.2.9-3.3,1.3-.3.1-.7.3-.7-.3-.1-2.5-.7-5-.7-7.6a1.47,1.47,0,0,1,.2-.6A1.28,1.28,0,0,1,129.85,79.26Z" fill="#4da541"/>
            <path d="M136.75,83.26c.3-1-1-1-1.1-1.7a3.11,3.11,0,0,0-.2-2.3c-.7.5-1.4,1-2.2,1.5-.1-.1-.2-.1-.2-.2.7-1.1,1.4-2.1,2.1-3.2,1.2-.1,1.8.7,2.4,1.5A4.2,4.2,0,0,1,136.75,83.26Z" fill="#4da541"/>
            <path d="M129.85,79.26a14.66,14.66,0,0,0-1.7-.8,3.79,3.79,0,0,1,3-2.7,9.12,9.12,0,0,1,1,.6c.7.6.7.7-.2,1.2A3.56,3.56,0,0,0,129.85,79.26Z" fill="#4da541"/>
            <path d="M132.05,77.56c.5-.3.7-.7,0-1-.3-.2-.8-.3-.9-.8a13.57,13.57,0,0,1,3.3-.9C134.55,76.76,134.35,77.06,132.05,77.56Z" fill="#4da541"/>
            <path d="M137.55,78.86a12.39,12.39,0,0,0-2.4-1.5c.4-.9.8-1.8,1.4-3C137,76.06,137.25,77.46,137.55,78.86Z" fill="#4da541"/>
          </g>
        </g>
      </g>
    </g>
  </g>
</svg>
